<svg xmlns="http://www.w3.org/2000/svg" xmlns:xlink="http://www.w3.org/1999/xlink" width="1024" zoomAndPan="magnify" viewBox="0 0 768 576" height="768" preserveAspectRatio="xMidYMid meet" version="1.0"><defs><g/></defs><rect x="-76.8" width="921.6" fill="#ffffff" y="-57.6" height="691.2" fill-opacity="1"/><rect x="-76.8" width="921.6" fill="#faffff" y="-57.6" height="691.2" fill-opacity="1"/><g fill="#52c6ff" fill-opacity="1"><g transform="translate(63.249021, 230.616207)"><g><path d="M 6.191406 0 L 12.238281 0 L 14.292969 -8.785156 C 14.722656 -10.65625 15.011719 -12.527344 15.40625 -14.652344 L 15.589844 -14.652344 C 15.984375 -12.527344 16.308594 -10.691406 16.738281 -8.785156 L 18.863281 0 L 25.09375 0 L 30.058594 -20.160156 L 25.164062 -20.160156 L 22.96875 -10.222656 C 22.609375 -8.242188 22.320312 -6.335938 21.960938 -4.320312 L 21.78125 -4.320312 C 21.347656 -6.335938 20.988281 -8.242188 20.519531 -10.222656 L 18 -20.160156 L 13.320312 -20.160156 L 10.871094 -10.222656 C 10.367188 -8.28125 10.007812 -6.335938 9.613281 -4.320312 L 9.46875 -4.320312 C 9.109375 -6.335938 8.855469 -8.242188 8.460938 -10.222656 L 6.265625 -20.160156 L 0.972656 -20.160156 Z M 6.191406 0 "/></g></g></g><g fill="#52c6ff" fill-opacity="1"><g transform="translate(94.317086, 230.616207)"><g><path d="M 11.628906 0.503906 C 14.113281 0.503906 16.667969 -0.359375 18.648438 -1.726562 L 16.847656 -4.96875 C 15.40625 -4.066406 13.96875 -3.5625 12.3125 -3.5625 C 9.324219 -3.5625 7.164062 -5.292969 6.730469 -8.605469 L 19.152344 -8.605469 C 19.296875 -9.070312 19.402344 -10.042969 19.402344 -11.050781 C 19.402344 -16.597656 16.523438 -20.664062 10.980469 -20.664062 C 6.191406 -20.664062 1.585938 -16.597656 1.585938 -10.078125 C 1.585938 -3.421875 5.976562 0.503906 11.628906 0.503906 Z M 6.660156 -12.132812 C 7.054688 -15.046875 8.929688 -16.558594 11.050781 -16.558594 C 13.644531 -16.558594 14.867188 -14.832031 14.867188 -12.132812 Z M 6.660156 -12.132812 "/></g></g></g><g fill="#52c6ff" fill-opacity="1"><g transform="translate(115.233132, 230.616207)"><g><path d="M 12.960938 0.503906 C 17.386719 0.503906 21.527344 -3.492188 21.527344 -10.441406 C 21.527344 -16.597656 18.539062 -20.664062 13.570312 -20.664062 C 11.59375 -20.664062 9.574219 -19.691406 7.992188 -18.253906 L 8.136719 -21.492188 L 8.136719 -28.726562 L 2.84375 -28.726562 L 2.84375 0 L 6.984375 0 L 7.453125 -2.125 L 7.597656 -2.125 C 9.214844 -0.433594 11.160156 0.503906 12.960938 0.503906 Z M 11.773438 -3.851562 C 10.691406 -3.851562 9.394531 -4.246094 8.136719 -5.363281 L 8.136719 -14.21875 C 9.503906 -15.625 10.726562 -16.308594 12.097656 -16.308594 C 14.867188 -16.308594 16.09375 -14.183594 16.09375 -10.332031 C 16.09375 -5.941406 14.21875 -3.851562 11.773438 -3.851562 Z M 11.773438 -3.851562 "/></g></g></g><g fill="#52c6ff" fill-opacity="1"><g transform="translate(138.417179, 230.616207)"><g><path d="M 2.84375 0 L 8.136719 0 L 8.136719 -20.160156 L 2.84375 -20.160156 Z M 5.507812 -23.398438 C 7.308594 -23.398438 8.566406 -24.550781 8.566406 -26.316406 C 8.566406 -28.042969 7.308594 -29.195312 5.507812 -29.195312 C 3.671875 -29.195312 2.410156 -28.042969 2.410156 -26.316406 C 2.410156 -24.550781 3.671875 -23.398438 5.507812 -23.398438 Z M 5.507812 -23.398438 "/></g></g></g><g fill="#52c6ff" fill-opacity="1"><g transform="translate(149.361198, 230.616207)"><g><path d="M 2.84375 0 L 8.136719 0 L 8.136719 -13.859375 C 9.613281 -15.335938 10.65625 -16.128906 12.3125 -16.128906 C 14.292969 -16.128906 15.15625 -15.046875 15.15625 -11.914062 L 15.15625 0 L 20.449219 0 L 20.449219 -12.5625 C 20.449219 -17.640625 18.574219 -20.664062 14.21875 -20.664062 C 11.484375 -20.664062 9.433594 -19.222656 7.667969 -17.496094 L 7.558594 -17.496094 L 7.164062 -20.160156 L 2.84375 -20.160156 Z M 2.84375 0 "/></g></g></g><g fill="#52c6ff" fill-opacity="1"><g transform="translate(172.437246, 230.616207)"><g><path d="M 10.222656 0.503906 C 11.988281 0.503906 13.390625 0.109375 14.472656 -0.253906 L 13.609375 -4.105469 C 13.066406 -3.886719 12.277344 -3.671875 11.628906 -3.671875 C 9.828125 -3.671875 8.890625 -4.753906 8.890625 -7.054688 L 8.890625 -15.984375 L 13.859375 -15.984375 L 13.859375 -20.160156 L 8.890625 -20.160156 L 8.890625 -25.597656 L 4.5 -25.597656 L 3.886719 -20.160156 L 0.757812 -19.90625 L 0.757812 -15.984375 L 3.601562 -15.984375 L 3.601562 -7.054688 C 3.601562 -2.554688 5.4375 0.503906 10.222656 0.503906 Z M 10.222656 0.503906 "/></g></g></g><g fill="#52c6ff" fill-opacity="1"><g transform="translate(187.557271, 230.616207)"><g><path d="M 2.84375 0 L 8.136719 0 L 8.136719 -12.023438 C 9.253906 -14.941406 11.160156 -15.984375 12.742188 -15.984375 C 13.570312 -15.984375 14.148438 -15.875 14.867188 -15.660156 L 15.769531 -20.230469 C 15.15625 -20.484375 14.507812 -20.664062 13.390625 -20.664062 C 11.304688 -20.664062 9.144531 -19.222656 7.667969 -16.597656 L 7.558594 -16.597656 L 7.164062 -20.160156 L 2.84375 -20.160156 Z M 2.84375 0 "/></g></g></g><g fill="#52c6ff" fill-opacity="1"><g transform="translate(203.2533, 230.616207)"><g><path d="M 11.269531 0.503906 C 16.308594 0.503906 20.953125 -3.382812 20.953125 -10.078125 C 20.953125 -16.777344 16.308594 -20.664062 11.269531 -20.664062 C 6.226562 -20.664062 1.585938 -16.777344 1.585938 -10.078125 C 1.585938 -3.382812 6.226562 0.503906 11.269531 0.503906 Z M 11.269531 -3.816406 C 8.53125 -3.816406 6.984375 -6.265625 6.984375 -10.078125 C 6.984375 -13.859375 8.53125 -16.34375 11.269531 -16.34375 C 14.003906 -16.34375 15.550781 -13.859375 15.550781 -10.078125 C 15.550781 -6.265625 14.003906 -3.816406 11.269531 -3.816406 Z M 11.269531 -3.816406 "/></g></g></g><g fill="#000000" fill-opacity="1"><g transform="translate(225.7998, 230.616207)"><g><path d="M 5.832031 0.503906 C 7.738281 0.503906 9.144531 -1.007812 9.144531 -2.953125 C 9.144531 -4.933594 7.738281 -6.40625 5.832031 -6.40625 C 3.960938 -6.40625 2.554688 -4.933594 2.554688 -2.953125 C 2.554688 -1.007812 3.960938 0.503906 5.832031 0.503906 Z M 5.832031 0.503906 "/></g></g></g><g fill="#309bff" fill-opacity="1"><g transform="translate(237.506827, 230.616207)"><g><path d="M 4.609375 8.101562 C 9.109375 8.101562 11.269531 5.363281 13.03125 0.613281 L 20.195312 -20.160156 L 15.121094 -20.160156 L 12.347656 -10.800781 C 11.878906 -8.929688 11.375 -6.984375 10.90625 -5.113281 L 10.726562 -5.113281 C 10.152344 -7.054688 9.648438 -9 9.035156 -10.800781 L 5.832031 -20.160156 L 0.503906 -20.160156 L 8.351562 -0.359375 L 7.992188 0.828125 C 7.414062 2.59375 6.265625 3.886719 4.210938 3.886719 C 3.742188 3.886719 3.167969 3.742188 2.808594 3.636719 L 1.835938 7.703125 C 2.628906 7.957031 3.421875 8.101562 4.609375 8.101562 Z M 4.609375 8.101562 "/></g></g></g><g fill="#309bff" fill-opacity="1"><g transform="translate(258.170873, 230.616207)"><g><path d="M 11.410156 0.503906 C 13.644531 0.503906 16.09375 -0.253906 18.035156 -1.945312 L 15.910156 -5.4375 C 14.796875 -4.5 13.429688 -3.816406 11.988281 -3.816406 C 9.109375 -3.816406 6.984375 -6.265625 6.984375 -10.078125 C 6.984375 -13.859375 9.070312 -16.34375 12.167969 -16.34375 C 13.285156 -16.34375 14.21875 -15.875 15.226562 -15.011719 L 17.746094 -18.433594 C 16.273438 -19.691406 14.363281 -20.664062 11.878906 -20.664062 C 6.40625 -20.664062 1.585938 -16.777344 1.585938 -10.078125 C 1.585938 -3.382812 5.832031 0.503906 11.410156 0.503906 Z M 11.410156 0.503906 "/></g></g></g><g fill="#309bff" fill-opacity="1"><g transform="translate(277.14291, 230.616207)"><g><path d="M 4.609375 8.101562 C 9.109375 8.101562 11.269531 5.363281 13.03125 0.613281 L 20.195312 -20.160156 L 15.121094 -20.160156 L 12.347656 -10.800781 C 11.878906 -8.929688 11.375 -6.984375 10.90625 -5.113281 L 10.726562 -5.113281 C 10.152344 -7.054688 9.648438 -9 9.035156 -10.800781 L 5.832031 -20.160156 L 0.503906 -20.160156 L 8.351562 -0.359375 L 7.992188 0.828125 C 7.414062 2.59375 6.265625 3.886719 4.210938 3.886719 C 3.742188 3.886719 3.167969 3.742188 2.808594 3.636719 L 1.835938 7.703125 C 2.628906 7.957031 3.421875 8.101562 4.609375 8.101562 Z M 4.609375 8.101562 "/></g></g></g><g fill="#309bff" fill-opacity="1"><g transform="translate(297.806957, 230.616207)"><g><path d="M 8.605469 0.503906 C 13.859375 0.503906 16.632812 -2.339844 16.632812 -5.867188 C 16.632812 -9.613281 13.679688 -10.945312 11.015625 -11.953125 C 8.890625 -12.742188 7.019531 -13.285156 7.019531 -14.761719 C 7.019531 -15.910156 7.882812 -16.703125 9.71875 -16.703125 C 11.195312 -16.703125 12.601562 -16.019531 14.039062 -14.976562 L 16.414062 -18.179688 C 14.761719 -19.441406 12.492188 -20.664062 9.574219 -20.664062 C 4.96875 -20.664062 2.050781 -18.109375 2.050781 -14.507812 C 2.050781 -11.125 4.894531 -9.574219 7.453125 -8.605469 C 9.574219 -7.777344 11.664062 -7.09375 11.664062 -5.578125 C 11.664062 -4.320312 10.765625 -3.457031 8.746094 -3.457031 C 6.875 -3.457031 5.148438 -4.246094 3.347656 -5.652344 L 0.9375 -2.339844 C 2.953125 -0.683594 5.902344 0.503906 8.605469 0.503906 Z M 8.605469 0.503906 "/></g></g></g><g fill="#309bff" fill-opacity="1"><g transform="translate(315.626998, 230.616207)"><g><path d="M 10.222656 0.503906 C 11.988281 0.503906 13.390625 0.109375 14.472656 -0.253906 L 13.609375 -4.105469 C 13.066406 -3.886719 12.277344 -3.671875 11.628906 -3.671875 C 9.828125 -3.671875 8.890625 -4.753906 8.890625 -7.054688 L 8.890625 -15.984375 L 13.859375 -15.984375 L 13.859375 -20.160156 L 8.890625 -20.160156 L 8.890625 -25.597656 L 4.5 -25.597656 L 3.886719 -20.160156 L 0.757812 -19.90625 L 0.757812 -15.984375 L 3.601562 -15.984375 L 3.601562 -7.054688 C 3.601562 -2.554688 5.4375 0.503906 10.222656 0.503906 Z M 10.222656 0.503906 "/></g></g></g><g fill="#309bff" fill-opacity="1"><g transform="translate(330.747023, 230.616207)"><g><path d="M 8.855469 0.503906 C 11.59375 0.503906 13.535156 -0.828125 15.265625 -2.878906 L 15.40625 -2.878906 L 15.804688 0 L 20.125 0 L 20.125 -20.160156 L 14.832031 -20.160156 L 14.832031 -6.550781 C 13.464844 -4.753906 12.382812 -4.03125 10.726562 -4.03125 C 8.785156 -4.03125 7.921875 -5.148438 7.921875 -8.242188 L 7.921875 -20.160156 L 2.628906 -20.160156 L 2.628906 -7.558594 C 2.628906 -2.519531 4.5 0.503906 8.855469 0.503906 Z M 8.855469 0.503906 "/></g></g></g><g fill="#309bff" fill-opacity="1"><g transform="translate(353.679071, 230.616207)"><g><path d="M 9.9375 0.503906 C 12.023438 0.503906 14.039062 -0.648438 15.515625 -2.089844 L 15.660156 -2.089844 L 16.054688 0 L 20.339844 0 L 20.339844 -28.726562 L 15.085938 -28.726562 L 15.085938 -21.636719 L 15.265625 -18.46875 C 13.824219 -19.800781 12.421875 -20.664062 10.152344 -20.664062 C 5.796875 -20.664062 1.691406 -16.632812 1.691406 -10.078125 C 1.691406 -3.457031 4.933594 0.503906 9.9375 0.503906 Z M 11.304688 -3.851562 C 8.640625 -3.851562 7.128906 -5.941406 7.128906 -10.117188 C 7.128906 -14.148438 9.035156 -16.308594 11.304688 -16.308594 C 12.5625 -16.308594 13.859375 -15.910156 15.085938 -14.796875 L 15.085938 -5.941406 C 13.894531 -4.429688 12.707031 -3.851562 11.304688 -3.851562 Z M 11.304688 -3.851562 "/></g></g></g><g fill="#309bff" fill-opacity="1"><g transform="translate(376.863118, 230.616207)"><g><path d="M 2.84375 0 L 8.136719 0 L 8.136719 -20.160156 L 2.84375 -20.160156 Z M 5.507812 -23.398438 C 7.308594 -23.398438 8.566406 -24.550781 8.566406 -26.316406 C 8.566406 -28.042969 7.308594 -29.195312 5.507812 -29.195312 C 3.671875 -29.195312 2.410156 -28.042969 2.410156 -26.316406 C 2.410156 -24.550781 3.671875 -23.398438 5.507812 -23.398438 Z M 5.507812 -23.398438 "/></g></g></g><g fill="#309bff" fill-opacity="1"><g transform="translate(387.807137, 230.616207)"><g><path d="M 11.269531 0.503906 C 16.308594 0.503906 20.953125 -3.382812 20.953125 -10.078125 C 20.953125 -16.777344 16.308594 -20.664062 11.269531 -20.664062 C 6.226562 -20.664062 1.585938 -16.777344 1.585938 -10.078125 C 1.585938 -3.382812 6.226562 0.503906 11.269531 0.503906 Z M 11.269531 -3.816406 C 8.53125 -3.816406 6.984375 -6.265625 6.984375 -10.078125 C 6.984375 -13.859375 8.53125 -16.34375 11.269531 -16.34375 C 14.003906 -16.34375 15.550781 -13.859375 15.550781 -10.078125 C 15.550781 -6.265625 14.003906 -3.816406 11.269531 -3.816406 Z M 11.269531 -3.816406 "/></g></g></g><g fill="#000000" fill-opacity="1"><g transform="translate(410.346667, 230.616207)"><g><path d="M 5.832031 0.503906 C 7.738281 0.503906 9.144531 -1.007812 9.144531 -2.953125 C 9.144531 -4.933594 7.738281 -6.40625 5.832031 -6.40625 C 3.960938 -6.40625 2.554688 -4.933594 2.554688 -2.953125 C 2.554688 -1.007812 3.960938 0.503906 5.832031 0.503906 Z M 5.832031 0.503906 "/></g></g></g><g fill="#6b5eff" fill-opacity="1"><g transform="translate(422.053694, 230.616207)"><g><path d="M 2.84375 0 L 8.136719 0 L 8.136719 -13.859375 C 9.539062 -15.371094 10.835938 -16.128906 11.988281 -16.128906 C 13.894531 -16.128906 14.832031 -15.046875 14.832031 -11.914062 L 14.832031 0 L 20.089844 0 L 20.089844 -13.859375 C 21.527344 -15.371094 22.824219 -16.128906 23.976562 -16.128906 C 25.882812 -16.128906 26.785156 -15.046875 26.785156 -11.914062 L 26.785156 0 L 32.074219 0 L 32.074219 -12.5625 C 32.074219 -17.640625 30.097656 -20.664062 25.8125 -20.664062 C 23.183594 -20.664062 21.238281 -19.078125 19.402344 -17.136719 C 18.433594 -19.367188 16.738281 -20.664062 13.859375 -20.664062 C 11.230469 -20.664062 9.359375 -19.222656 7.667969 -17.460938 L 7.558594 -17.460938 L 7.164062 -20.160156 L 2.84375 -20.160156 Z M 2.84375 0 "/></g></g></g><g fill="#6b5eff" fill-opacity="1"><g transform="translate(456.757764, 230.616207)"><g><path d="M 11.628906 0.503906 C 14.113281 0.503906 16.667969 -0.359375 18.648438 -1.726562 L 16.847656 -4.96875 C 15.40625 -4.066406 13.96875 -3.5625 12.3125 -3.5625 C 9.324219 -3.5625 7.164062 -5.292969 6.730469 -8.605469 L 19.152344 -8.605469 C 19.296875 -9.070312 19.402344 -10.042969 19.402344 -11.050781 C 19.402344 -16.597656 16.523438 -20.664062 10.980469 -20.664062 C 6.191406 -20.664062 1.585938 -16.597656 1.585938 -10.078125 C 1.585938 -3.421875 5.976562 0.503906 11.628906 0.503906 Z M 6.660156 -12.132812 C 7.054688 -15.046875 8.929688 -16.558594 11.050781 -16.558594 C 13.644531 -16.558594 14.867188 -14.832031 14.867188 -12.132812 Z M 6.660156 -12.132812 "/></g></g></g><g fill="#000000" fill-opacity="1"><g transform="translate(477.682602, 230.616207)"><g><path d="M 0.503906 6.550781 L 4.03125 6.550781 L 12.960938 -29.015625 L 9.46875 -29.015625 Z M 0.503906 6.550781 "/></g></g></g><g fill="#d459ff" fill-opacity="1"><g transform="translate(491.651351, 230.616207)"><g><path d="M 9.9375 0.503906 C 12.023438 0.503906 14.039062 -0.648438 15.515625 -2.089844 L 15.660156 -2.089844 L 16.054688 0 L 20.339844 0 L 20.339844 -28.726562 L 15.085938 -28.726562 L 15.085938 -21.636719 L 15.265625 -18.46875 C 13.824219 -19.800781 12.421875 -20.664062 10.152344 -20.664062 C 5.796875 -20.664062 1.691406 -16.632812 1.691406 -10.078125 C 1.691406 -3.457031 4.933594 0.503906 9.9375 0.503906 Z M 11.304688 -3.851562 C 8.640625 -3.851562 7.128906 -5.941406 7.128906 -10.117188 C 7.128906 -14.148438 9.035156 -16.308594 11.304688 -16.308594 C 12.5625 -16.308594 13.859375 -15.910156 15.085938 -14.796875 L 15.085938 -5.941406 C 13.894531 -4.429688 12.707031 -3.851562 11.304688 -3.851562 Z M 11.304688 -3.851562 "/></g></g></g><g fill="#d459ff" fill-opacity="1"><g transform="translate(514.835398, 230.616207)"><g><path d="M 11.269531 0.503906 C 16.308594 0.503906 20.953125 -3.382812 20.953125 -10.078125 C 20.953125 -16.777344 16.308594 -20.664062 11.269531 -20.664062 C 6.226562 -20.664062 1.585938 -16.777344 1.585938 -10.078125 C 1.585938 -3.382812 6.226562 0.503906 11.269531 0.503906 Z M 11.269531 -3.816406 C 8.53125 -3.816406 6.984375 -6.265625 6.984375 -10.078125 C 6.984375 -13.859375 8.53125 -16.34375 11.269531 -16.34375 C 14.003906 -16.34375 15.550781 -13.859375 15.550781 -10.078125 C 15.550781 -6.265625 14.003906 -3.816406 11.269531 -3.816406 Z M 11.269531 -3.816406 "/></g></g></g><g fill="#d459ff" fill-opacity="1"><g transform="translate(537.371446, 230.616207)"><g><path d="M 2.84375 0 L 8.136719 0 L 8.136719 -13.859375 C 9.539062 -15.371094 10.835938 -16.128906 11.988281 -16.128906 C 13.894531 -16.128906 14.832031 -15.046875 14.832031 -11.914062 L 14.832031 0 L 20.089844 0 L 20.089844 -13.859375 C 21.527344 -15.371094 22.824219 -16.128906 23.976562 -16.128906 C 25.882812 -16.128906 26.785156 -15.046875 26.785156 -11.914062 L 26.785156 0 L 32.074219 0 L 32.074219 -12.5625 C 32.074219 -17.640625 30.097656 -20.664062 25.8125 -20.664062 C 23.183594 -20.664062 21.238281 -19.078125 19.402344 -17.136719 C 18.433594 -19.367188 16.738281 -20.664062 13.859375 -20.664062 C 11.230469 -20.664062 9.359375 -19.222656 7.667969 -17.460938 L 7.558594 -17.460938 L 7.164062 -20.160156 L 2.84375 -20.160156 Z M 2.84375 0 "/></g></g></g><g fill="#d459ff" fill-opacity="1"><g transform="translate(572.075516, 230.616207)"><g><path d="M 7.8125 0.503906 C 10.117188 0.503906 12.132812 -0.648438 13.894531 -2.160156 L 14.039062 -2.160156 L 14.398438 0 L 18.71875 0 L 18.71875 -11.773438 C 18.71875 -17.605469 16.09375 -20.664062 10.980469 -20.664062 C 7.8125 -20.664062 4.933594 -19.476562 2.554688 -18 L 4.464844 -14.507812 C 6.335938 -15.589844 8.136719 -16.414062 10.007812 -16.414062 C 12.492188 -16.414062 13.355469 -14.902344 13.464844 -12.925781 C 5.328125 -12.058594 1.835938 -9.792969 1.835938 -5.472656 C 1.835938 -2.050781 4.210938 0.503906 7.8125 0.503906 Z M 9.539062 -3.636719 C 7.992188 -3.636719 6.875 -4.320312 6.875 -5.902344 C 6.875 -7.703125 8.53125 -9.070312 13.464844 -9.683594 L 13.464844 -5.617188 C 12.167969 -4.355469 11.050781 -3.636719 9.539062 -3.636719 Z M 9.539062 -3.636719 "/></g></g></g><g fill="#d459ff" fill-opacity="1"><g transform="translate(593.351558, 230.616207)"><g><path d="M 2.84375 0 L 8.136719 0 L 8.136719 -20.160156 L 2.84375 -20.160156 Z M 5.507812 -23.398438 C 7.308594 -23.398438 8.566406 -24.550781 8.566406 -26.316406 C 8.566406 -28.042969 7.308594 -29.195312 5.507812 -29.195312 C 3.671875 -29.195312 2.410156 -28.042969 2.410156 -26.316406 C 2.410156 -24.550781 3.671875 -23.398438 5.507812 -23.398438 Z M 5.507812 -23.398438 "/></g></g></g><g fill="#d459ff" fill-opacity="1"><g transform="translate(604.295576, 230.616207)"><g><path d="M 2.84375 0 L 8.136719 0 L 8.136719 -13.859375 C 9.613281 -15.335938 10.65625 -16.128906 12.3125 -16.128906 C 14.292969 -16.128906 15.15625 -15.046875 15.15625 -11.914062 L 15.15625 0 L 20.449219 0 L 20.449219 -12.5625 C 20.449219 -17.640625 18.574219 -20.664062 14.21875 -20.664062 C 11.484375 -20.664062 9.433594 -19.222656 7.667969 -17.496094 L 7.558594 -17.496094 L 7.164062 -20.160156 L 2.84375 -20.160156 Z M 2.84375 0 "/></g></g></g><g fill="#d459ff" fill-opacity="1"><g transform="translate(627.371625, 230.616207)"><g><path d="M 1.765625 -8.425781 L 11.59375 -8.425781 L 11.59375 -12.203125 L 1.765625 -12.203125 Z M 1.765625 -8.425781 "/></g></g></g><g fill="#d459ff" fill-opacity="1"><g transform="translate(640.691654, 230.616207)"><g><path d="M 9.9375 0.503906 C 12.023438 0.503906 14.039062 -0.648438 15.515625 -2.089844 L 15.660156 -2.089844 L 16.054688 0 L 20.339844 0 L 20.339844 -28.726562 L 15.085938 -28.726562 L 15.085938 -21.636719 L 15.265625 -18.46875 C 13.824219 -19.800781 12.421875 -20.664062 10.152344 -20.664062 C 5.796875 -20.664062 1.691406 -16.632812 1.691406 -10.078125 C 1.691406 -3.457031 4.933594 0.503906 9.9375 0.503906 Z M 11.304688 -3.851562 C 8.640625 -3.851562 7.128906 -5.941406 7.128906 -10.117188 C 7.128906 -14.148438 9.035156 -16.308594 11.304688 -16.308594 C 12.5625 -16.308594 13.859375 -15.910156 15.085938 -14.796875 L 15.085938 -5.941406 C 13.894531 -4.429688 12.707031 -3.851562 11.304688 -3.851562 Z M 11.304688 -3.851562 "/></g></g></g><g fill="#d459ff" fill-opacity="1"><g transform="translate(663.875701, 230.616207)"><g><path d="M 2.84375 0 L 8.136719 0 L 8.136719 -13.859375 C 9.613281 -15.335938 10.65625 -16.128906 12.3125 -16.128906 C 14.292969 -16.128906 15.15625 -15.046875 15.15625 -11.914062 L 15.15625 0 L 20.449219 0 L 20.449219 -12.5625 C 20.449219 -17.640625 18.574219 -20.664062 14.21875 -20.664062 C 11.484375 -20.664062 9.433594 -19.222656 7.667969 -17.496094 L 7.558594 -17.496094 L 7.164062 -20.160156 L 2.84375 -20.160156 Z M 2.84375 0 "/></g></g></g><g fill="#d459ff" fill-opacity="1"><g transform="translate(686.95175, 230.616207)"><g><path d="M 8.605469 0.503906 C 13.859375 0.503906 16.632812 -2.339844 16.632812 -5.867188 C 16.632812 -9.613281 13.679688 -10.945312 11.015625 -11.953125 C 8.890625 -12.742188 7.019531 -13.285156 7.019531 -14.761719 C 7.019531 -15.910156 7.882812 -16.703125 9.71875 -16.703125 C 11.195312 -16.703125 12.601562 -16.019531 14.039062 -14.976562 L 16.414062 -18.179688 C 14.761719 -19.441406 12.492188 -20.664062 9.574219 -20.664062 C 4.96875 -20.664062 2.050781 -18.109375 2.050781 -14.507812 C 2.050781 -11.125 4.894531 -9.574219 7.453125 -8.605469 C 9.574219 -7.777344 11.664062 -7.09375 11.664062 -5.578125 C 11.664062 -4.320312 10.765625 -3.457031 8.746094 -3.457031 C 6.875 -3.457031 5.148438 -4.246094 3.347656 -5.652344 L 0.9375 -2.339844 C 2.953125 -0.683594 5.902344 0.503906 8.605469 0.503906 Z M 8.605469 0.503906 "/></g></g></g><path stroke-linecap="butt" transform="matrix(0.75, 0, 0, 0.75, 57.600002, 255.301181)" fill="none" stroke-linejoin="miter" d="M 0.00208013 1.999468 L 229.62709 1.999468 " stroke="#52c6ff" stroke-width="4" stroke-opacity="1" stroke-miterlimit="4"/><g fill="#52c6ff" fill-opacity="1"><g transform="translate(75.835074, 300.049459)"><g><path d="M 20.898438 -8.667969 L 11.921875 -8.667969 L 11.921875 -11 C 14.429688 -12.273438 17.246094 -14.230469 19.117188 -16.082031 L 17.882812 -17.003906 L 17.53125 -16.917969 L 3.367188 -16.917969 L 3.367188 -15.308594 L 15.75 -15.308594 C 14.210938 -14.035156 12.078125 -12.671875 10.25 -11.835938 L 10.25 -8.667969 L 1.1875 -8.667969 L 1.1875 -7.039062 L 10.25 -7.039062 L 10.25 -0.507812 C 10.25 -0.109375 10.097656 0 9.65625 0.0234375 C 9.171875 0.0429688 7.566406 0.0664062 5.785156 0 C 6.070312 0.460938 6.378906 1.1875 6.488281 1.671875 C 8.601562 1.671875 9.988281 1.648438 10.800781 1.363281 C 11.636719 1.121094 11.921875 0.617188 11.921875 -0.484375 L 11.921875 -7.039062 L 20.898438 -7.039062 Z M 20.898438 -8.667969 "/></g></g></g><g fill="#52c6ff" fill-opacity="1"><g transform="translate(97.831156, 300.049459)"><g><path d="M 1.957031 -4.332031 C 1.738281 -2.574219 1.40625 -0.636719 0.925781 0.726562 C 1.230469 0.8125 1.847656 1.011719 2.113281 1.164062 C 2.574219 -0.199219 2.992188 -2.222656 3.210938 -4.136719 Z M 4.222656 -4.203125 C 4.464844 -2.707031 4.730469 -0.792969 4.773438 0.507812 L 6.003906 0.199219 C 5.917969 -1.078125 5.675781 -2.96875 5.390625 -4.421875 Z M 6.597656 -4.621094 C 7.082031 -3.277344 7.609375 -1.519531 7.832031 -0.351562 L 8.953125 -0.769531 C 8.734375 -1.890625 8.183594 -3.628906 7.675781 -4.992188 Z M 6.402344 -9.65625 C 6.644531 -9.019531 6.929688 -8.316406 7.171875 -7.609375 L 3.367188 -7.082031 C 5.125 -9.171875 6.839844 -11.789062 8.203125 -14.386719 L 6.929688 -15.15625 C 6.46875 -14.121094 5.875 -13.066406 5.324219 -12.121094 L 3.011719 -11.902344 C 4.222656 -13.574219 5.410156 -15.726562 6.335938 -17.796875 L 4.949219 -18.390625 C 4.089844 -16.015625 2.597656 -13.507812 2.132812 -12.847656 C 1.695312 -12.1875 1.296875 -11.726562 0.96875 -11.636719 C 1.121094 -11.261719 1.363281 -10.535156 1.429688 -10.230469 C 1.714844 -10.382812 2.179688 -10.492188 4.464844 -10.757812 C 3.695312 -9.546875 3.011719 -8.601562 2.660156 -8.183594 C 2.023438 -7.347656 1.539062 -6.796875 1.101562 -6.710938 C 1.277344 -6.3125 1.519531 -5.609375 1.5625 -5.28125 C 1.957031 -5.5 2.640625 -5.652344 7.546875 -6.421875 C 7.632812 -6.050781 7.742188 -5.675781 7.808594 -5.367188 L 9.039062 -5.851562 C 8.777344 -6.90625 8.140625 -8.667969 7.566406 -10.054688 Z M 14.296875 -3.785156 C 13.835938 -3.785156 13.769531 -3.960938 13.769531 -4.53125 L 13.769531 -6.6875 L 18.300781 -6.6875 L 18.300781 -7.984375 L 15.046875 -7.984375 L 15.839844 -8.335938 C 15.640625 -8.820312 15.246094 -9.679688 14.871094 -10.316406 L 18.566406 -10.316406 L 18.566406 -11.613281 L 16.695312 -11.613281 C 17.046875 -12.5625 17.464844 -13.8125 17.796875 -14.890625 L 16.585938 -15.246094 C 16.386719 -14.1875 15.949219 -12.648438 15.550781 -11.613281 L 11.371094 -11.613281 L 11.371094 -10.316406 L 14.738281 -10.316406 L 13.726562 -9.921875 C 14.035156 -9.347656 14.386719 -8.578125 14.585938 -7.984375 L 11.59375 -7.984375 L 11.59375 -6.6875 L 12.40625 -6.6875 L 12.40625 -4.554688 C 12.40625 -3.101562 12.738281 -2.574219 14.1875 -2.574219 L 17.003906 -2.574219 C 17.554688 -2.574219 18.125 -2.597656 18.410156 -2.683594 C 18.367188 -3.011719 18.324219 -3.519531 18.28125 -3.894531 C 17.949219 -3.804688 17.335938 -3.785156 16.980469 -3.785156 Z M 12.121094 -14.9375 C 12.648438 -13.96875 13.109375 -12.648438 13.265625 -11.789062 L 14.320312 -12.164062 C 14.1875 -13.023438 13.683594 -14.320312 13.132812 -15.289062 Z M 20.523438 -17.355469 L 9.328125 -17.355469 L 9.328125 1.714844 L 10.800781 1.714844 L 10.800781 -15.902344 L 19.027344 -15.902344 L 19.027344 -0.152344 C 19.027344 0.152344 18.941406 0.242188 18.652344 0.265625 C 18.390625 0.265625 17.511719 0.285156 16.585938 0.242188 C 16.785156 0.636719 16.960938 1.296875 17.003906 1.695312 C 18.347656 1.695312 19.246094 1.671875 19.777344 1.40625 C 20.347656 1.144531 20.523438 0.746094 20.523438 -0.152344 Z M 20.523438 -17.355469 "/></g></g></g><g fill="#52c6ff" fill-opacity="1"><g transform="translate(119.827238, 300.049459)"><g><path d="M 6.90625 -5.675781 C 6.226562 -5.34375 5.519531 -4.992188 4.863281 -4.683594 L 4.863281 -11.527344 L 6.863281 -11.527344 L 6.863281 -13.066406 L 4.863281 -13.066406 L 4.863281 -18.148438 L 3.320312 -18.148438 L 3.320312 -13.066406 L 1.035156 -13.066406 L 1.035156 -11.527344 L 3.320312 -11.527344 L 3.320312 -3.960938 C 2.398438 -3.542969 1.5625 -3.167969 0.859375 -2.882812 L 1.496094 -1.277344 C 3.191406 -2.113281 5.34375 -3.191406 7.347656 -4.222656 Z M 14.230469 -4.289062 C 11.394531 -3.542969 8.46875 -2.726562 6.488281 -2.289062 L 6.929688 -0.746094 C 9.019531 -1.34375 11.769531 -2.132812 14.386719 -2.902344 Z M 11.988281 -6.578125 L 9.152344 -6.578125 L 9.152344 -10.273438 L 11.988281 -10.273438 Z M 7.875 -11.59375 L 7.875 -5.257812 L 13.332031 -5.257812 L 13.332031 -11.59375 Z M 18.894531 -11.59375 C 18.367188 -9.523438 17.6875 -7.65625 16.785156 -5.9375 C 16.476562 -8.09375 16.257812 -10.734375 16.167969 -13.660156 L 20.789062 -13.660156 L 20.789062 -15.179688 L 19.621094 -15.179688 L 20.589844 -16.082031 C 20.039062 -16.761719 18.875 -17.707031 17.90625 -18.347656 L 16.960938 -17.53125 C 17.90625 -16.828125 19.027344 -15.839844 19.578125 -15.179688 L 16.125 -15.179688 C 16.101562 -16.210938 16.101562 -17.289062 16.101562 -18.390625 L 14.519531 -18.390625 C 14.519531 -17.3125 14.539062 -16.234375 14.585938 -15.179688 L 7.238281 -15.179688 L 7.238281 -13.660156 L 14.628906 -13.660156 C 14.761719 -9.941406 15.046875 -6.578125 15.550781 -3.9375 C 14.34375 -2.199219 12.867188 -0.703125 11.085938 0.417969 C 11.4375 0.683594 12.054688 1.210938 12.296875 1.496094 C 13.683594 0.507812 14.9375 -0.683594 16.015625 -2.089844 C 16.695312 0.265625 17.640625 1.671875 18.984375 1.671875 C 20.371094 1.671875 20.808594 0.746094 21.050781 -2.179688 C 20.699219 -2.355469 20.214844 -2.660156 19.886719 -3.035156 C 19.796875 -0.746094 19.601562 0.109375 19.183594 0.109375 C 18.367188 0.109375 17.707031 -1.320312 17.179688 -3.71875 C 18.542969 -5.894531 19.601562 -8.425781 20.390625 -11.308594 Z M 18.894531 -11.59375 "/></g></g></g><g fill="#52c6ff" fill-opacity="1"><g transform="translate(141.823319, 300.049459)"><g><path d="M 15.289062 -8.359375 C 15.289062 -4.070312 17.027344 -0.570312 19.664062 2.113281 L 20.984375 1.429688 C 18.457031 -1.1875 16.894531 -4.445312 16.894531 -8.359375 C 16.894531 -12.273438 18.457031 -15.53125 20.984375 -18.148438 L 19.664062 -18.828125 C 17.027344 -16.144531 15.289062 -12.648438 15.289062 -8.359375 Z M 15.289062 -8.359375 "/></g></g></g><g fill="#52c6ff" fill-opacity="1"><g transform="translate(163.819401, 300.049459)"><g><path d="M 2.773438 -16.277344 L 2.773438 -14.648438 L 19.269531 -14.648438 L 19.269531 -16.277344 Z M 4.179688 -9.152344 L 4.179688 -7.5 L 17.554688 -7.5 L 17.554688 -9.152344 Z M 1.519531 -1.5625 L 1.519531 0.0898438 L 20.457031 0.0898438 L 20.457031 -1.5625 Z M 1.519531 -1.5625 "/></g></g></g><g fill="#52c6ff" fill-opacity="1"><g transform="translate(185.815482, 300.049459)"><g><path d="M 9.65625 -5.761719 C 9.4375 -6.90625 8.753906 -8.777344 8.027344 -10.230469 L 6.863281 -9.8125 C 7.128906 -9.195312 7.414062 -8.492188 7.675781 -7.808594 L 3.894531 -7.257812 C 5.675781 -9.28125 7.390625 -11.8125 8.84375 -14.34375 L 7.433594 -15.179688 C 6.929688 -14.1875 6.355469 -13.175781 5.761719 -12.230469 L 3.453125 -12.011719 C 4.664062 -13.683594 5.875 -15.773438 6.839844 -17.839844 L 5.300781 -18.476562 C 4.398438 -16.101562 2.882812 -13.59375 2.417969 -12.957031 C 1.957031 -12.296875 1.5625 -11.835938 1.1875 -11.746094 C 1.363281 -11.351562 1.628906 -10.558594 1.714844 -10.25 C 2.023438 -10.382812 2.484375 -10.492188 4.816406 -10.777344 C 4.027344 -9.589844 3.320312 -8.6875 2.96875 -8.292969 C 2.308594 -7.5 1.804688 -6.953125 1.34375 -6.863281 C 1.519531 -6.421875 1.761719 -5.652344 1.847656 -5.324219 C 2.289062 -5.566406 2.96875 -5.742188 8.050781 -6.535156 C 8.203125 -6.050781 8.316406 -5.632812 8.382812 -5.257812 Z M 2.242188 -4.355469 C 2.023438 -2.597656 1.695312 -0.636719 1.1875 0.703125 C 1.519531 0.8125 2.179688 1.035156 2.441406 1.1875 C 2.902344 -0.175781 3.34375 -2.242188 3.5625 -4.113281 Z M 4.597656 -4.203125 C 4.839844 -2.792969 5.058594 -0.96875 5.125 0.21875 L 6.378906 -0.0664062 C 6.3125 -1.277344 6.050781 -3.058594 5.785156 -4.445312 Z M 6.972656 -4.621094 C 7.390625 -3.476562 7.875 -1.980469 8.027344 -1.011719 L 9.261719 -1.429688 C 9.0625 -2.375 8.578125 -3.828125 8.140625 -4.972656 Z M 18.566406 -9.636719 C 18.058594 -7.632812 17.289062 -5.828125 16.320312 -4.289062 C 15.375 -5.851562 14.671875 -7.675781 14.167969 -9.636719 Z M 16.851562 -15.816406 C 16.628906 -14.410156 16.320312 -12.582031 16.035156 -11.109375 L 13.023438 -11.109375 C 13.109375 -12.582031 13.15625 -14.167969 13.199219 -15.816406 Z M 19.402344 -11.195312 L 19.117188 -11.109375 L 17.574219 -11.109375 C 17.972656 -13.066406 18.347656 -15.464844 18.585938 -17.269531 L 17.464844 -17.445312 L 17.203125 -17.355469 L 9.4375 -17.355469 L 9.4375 -15.816406 L 11.59375 -15.816406 C 11.527344 -8.6875 11.066406 -3.058594 8.183594 0.527344 C 8.578125 0.726562 9.347656 1.277344 9.613281 1.539062 C 11.59375 -1.230469 12.449219 -4.773438 12.867188 -9.171875 C 13.460938 -6.839844 14.277344 -4.730469 15.355469 -2.925781 C 14.1875 -1.453125 12.824219 -0.308594 11.371094 0.460938 C 11.746094 0.726562 12.1875 1.296875 12.40625 1.695312 C 13.835938 0.902344 15.15625 -0.199219 16.300781 -1.5625 C 17.335938 -0.242188 18.566406 0.835938 20.039062 1.582031 C 20.28125 1.144531 20.789062 0.527344 21.160156 0.21875 C 19.621094 -0.460938 18.347656 -1.519531 17.289062 -2.859375 C 18.71875 -4.972656 19.820312 -7.609375 20.414062 -10.824219 Z M 19.402344 -11.195312 "/></g></g></g><g fill="#52c6ff" fill-opacity="1"><g transform="translate(207.811564, 300.049459)"><g><path d="M 6.710938 -8.359375 C 6.710938 -12.648438 4.972656 -16.144531 2.332031 -18.828125 L 1.011719 -18.148438 C 3.542969 -15.53125 5.101562 -12.273438 5.101562 -8.359375 C 5.101562 -4.445312 3.542969 -1.1875 1.011719 1.429688 L 2.332031 2.113281 C 4.972656 -0.570312 6.710938 -4.070312 6.710938 -8.359375 Z M 6.710938 -8.359375 "/></g></g></g><g fill="#309bff" fill-opacity="1"><g transform="translate(292.046179, 298.85119)"><g><path d="M 3.167969 -15.246094 L 3.167969 -13.507812 L 18.851562 -13.507812 L 18.851562 -15.246094 Z M 1.320312 -2.289062 L 1.320312 -0.507812 L 20.699219 -0.507812 L 20.699219 -2.289062 Z M 1.320312 -2.289062 "/></g></g></g><g fill="#309bff" fill-opacity="1"><g transform="translate(314.042261, 298.85119)"><g><path d="M 9.65625 -5.761719 C 9.4375 -6.90625 8.753906 -8.777344 8.027344 -10.230469 L 6.863281 -9.8125 C 7.128906 -9.195312 7.414062 -8.492188 7.675781 -7.808594 L 3.894531 -7.257812 C 5.675781 -9.28125 7.390625 -11.8125 8.84375 -14.34375 L 7.433594 -15.179688 C 6.929688 -14.1875 6.355469 -13.175781 5.761719 -12.230469 L 3.453125 -12.011719 C 4.664062 -13.683594 5.875 -15.773438 6.839844 -17.839844 L 5.300781 -18.476562 C 4.398438 -16.101562 2.882812 -13.59375 2.417969 -12.957031 C 1.957031 -12.296875 1.5625 -11.835938 1.1875 -11.746094 C 1.363281 -11.351562 1.628906 -10.558594 1.714844 -10.25 C 2.023438 -10.382812 2.484375 -10.492188 4.816406 -10.777344 C 4.027344 -9.589844 3.320312 -8.6875 2.96875 -8.292969 C 2.308594 -7.5 1.804688 -6.953125 1.34375 -6.863281 C 1.519531 -6.421875 1.761719 -5.652344 1.847656 -5.324219 C 2.289062 -5.566406 2.96875 -5.742188 8.050781 -6.535156 C 8.203125 -6.050781 8.316406 -5.632812 8.382812 -5.257812 Z M 2.242188 -4.355469 C 2.023438 -2.597656 1.695312 -0.636719 1.1875 0.703125 C 1.519531 0.8125 2.179688 1.035156 2.441406 1.1875 C 2.902344 -0.175781 3.34375 -2.242188 3.5625 -4.113281 Z M 4.597656 -4.203125 C 4.839844 -2.792969 5.058594 -0.96875 5.125 0.21875 L 6.378906 -0.0664062 C 6.3125 -1.277344 6.050781 -3.058594 5.785156 -4.445312 Z M 6.972656 -4.621094 C 7.390625 -3.476562 7.875 -1.980469 8.027344 -1.011719 L 9.261719 -1.429688 C 9.0625 -2.375 8.578125 -3.828125 8.140625 -4.972656 Z M 18.566406 -9.636719 C 18.058594 -7.632812 17.289062 -5.828125 16.320312 -4.289062 C 15.375 -5.851562 14.671875 -7.675781 14.167969 -9.636719 Z M 16.851562 -15.816406 C 16.628906 -14.410156 16.320312 -12.582031 16.035156 -11.109375 L 13.023438 -11.109375 C 13.109375 -12.582031 13.15625 -14.167969 13.199219 -15.816406 Z M 19.402344 -11.195312 L 19.117188 -11.109375 L 17.574219 -11.109375 C 17.972656 -13.066406 18.347656 -15.464844 18.585938 -17.269531 L 17.464844 -17.445312 L 17.203125 -17.355469 L 9.4375 -17.355469 L 9.4375 -15.816406 L 11.59375 -15.816406 C 11.527344 -8.6875 11.066406 -3.058594 8.183594 0.527344 C 8.578125 0.726562 9.347656 1.277344 9.613281 1.539062 C 11.59375 -1.230469 12.449219 -4.773438 12.867188 -9.171875 C 13.460938 -6.839844 14.277344 -4.730469 15.355469 -2.925781 C 14.1875 -1.453125 12.824219 -0.308594 11.371094 0.460938 C 11.746094 0.726562 12.1875 1.296875 12.40625 1.695312 C 13.835938 0.902344 15.15625 -0.199219 16.300781 -1.5625 C 17.335938 -0.242188 18.566406 0.835938 20.039062 1.582031 C 20.28125 1.144531 20.789062 0.527344 21.160156 0.21875 C 19.621094 -0.460938 18.347656 -1.519531 17.289062 -2.859375 C 18.71875 -4.972656 19.820312 -7.609375 20.414062 -10.824219 Z M 19.402344 -11.195312 "/></g></g></g><g fill="#309bff" fill-opacity="1"><g transform="translate(336.038342, 298.85119)"><g><path d="M 6.90625 -5.675781 C 6.226562 -5.34375 5.519531 -4.992188 4.863281 -4.683594 L 4.863281 -11.527344 L 6.863281 -11.527344 L 6.863281 -13.066406 L 4.863281 -13.066406 L 4.863281 -18.148438 L 3.320312 -18.148438 L 3.320312 -13.066406 L 1.035156 -13.066406 L 1.035156 -11.527344 L 3.320312 -11.527344 L 3.320312 -3.960938 C 2.398438 -3.542969 1.5625 -3.167969 0.859375 -2.882812 L 1.496094 -1.277344 C 3.191406 -2.113281 5.34375 -3.191406 7.347656 -4.222656 Z M 14.230469 -4.289062 C 11.394531 -3.542969 8.46875 -2.726562 6.488281 -2.289062 L 6.929688 -0.746094 C 9.019531 -1.34375 11.769531 -2.132812 14.386719 -2.902344 Z M 11.988281 -6.578125 L 9.152344 -6.578125 L 9.152344 -10.273438 L 11.988281 -10.273438 Z M 7.875 -11.59375 L 7.875 -5.257812 L 13.332031 -5.257812 L 13.332031 -11.59375 Z M 18.894531 -11.59375 C 18.367188 -9.523438 17.6875 -7.65625 16.785156 -5.9375 C 16.476562 -8.09375 16.257812 -10.734375 16.167969 -13.660156 L 20.789062 -13.660156 L 20.789062 -15.179688 L 19.621094 -15.179688 L 20.589844 -16.082031 C 20.039062 -16.761719 18.875 -17.707031 17.90625 -18.347656 L 16.960938 -17.53125 C 17.90625 -16.828125 19.027344 -15.839844 19.578125 -15.179688 L 16.125 -15.179688 C 16.101562 -16.210938 16.101562 -17.289062 16.101562 -18.390625 L 14.519531 -18.390625 C 14.519531 -17.3125 14.539062 -16.234375 14.585938 -15.179688 L 7.238281 -15.179688 L 7.238281 -13.660156 L 14.628906 -13.660156 C 14.761719 -9.941406 15.046875 -6.578125 15.550781 -3.9375 C 14.34375 -2.199219 12.867188 -0.703125 11.085938 0.417969 C 11.4375 0.683594 12.054688 1.210938 12.296875 1.496094 C 13.683594 0.507812 14.9375 -0.683594 16.015625 -2.089844 C 16.695312 0.265625 17.640625 1.671875 18.984375 1.671875 C 20.371094 1.671875 20.808594 0.746094 21.050781 -2.179688 C 20.699219 -2.355469 20.214844 -2.660156 19.886719 -3.035156 C 19.796875 -0.746094 19.601562 0.109375 19.183594 0.109375 C 18.367188 0.109375 17.707031 -1.320312 17.179688 -3.71875 C 18.542969 -5.894531 19.601562 -8.425781 20.390625 -11.308594 Z M 18.894531 -11.59375 "/></g></g></g><path stroke-linecap="butt" transform="matrix(0.75, 0, 0, 0.75, 239.047636, 255.301181)" fill="none" stroke-linejoin="miter" d="M -0.00101525 1.999468 L 229.623994 1.999468 " stroke="#309bff" stroke-width="4" stroke-opacity="1" stroke-miterlimit="4"/><g fill="#6b5eff" fill-opacity="1"><g transform="translate(423.020985, 298.85119)"><g><path d="M 18.632812 -10.449219 L 11.351562 -10.449219 L 11.351562 -12.5625 L 18.632812 -12.5625 Z M 18.632812 -7.128906 L 11.351562 -7.128906 L 11.351562 -9.28125 L 18.632812 -9.28125 Z M 18.632812 -3.761719 L 11.351562 -3.761719 L 11.351562 -5.917969 L 18.632812 -5.917969 Z M 9.8125 -13.835938 L 9.8125 -2.484375 L 20.214844 -2.484375 L 20.214844 -13.835938 L 15.046875 -13.835938 C 15.289062 -14.496094 15.550781 -15.246094 15.773438 -15.96875 L 21.007812 -15.96875 L 21.007812 -17.378906 L 9.085938 -17.378906 L 9.085938 -15.96875 L 13.925781 -15.96875 C 13.769531 -15.289062 13.59375 -14.496094 13.417969 -13.835938 Z M 8.734375 -15.441406 L 8.734375 -16.980469 L 0.945312 -16.980469 L 0.945312 -15.441406 L 4.445312 -15.441406 L 4.445312 -1.078125 C 4.445312 -0.726562 4.3125 -0.636719 3.980469 -0.617188 C 3.628906 -0.617188 2.441406 -0.59375 1.1875 -0.636719 C 1.40625 -0.175781 1.648438 0.527344 1.714844 0.96875 C 3.410156 0.96875 4.507812 0.945312 5.148438 0.660156 C 5.808594 0.394531 6.050781 -0.0664062 6.050781 -1.054688 L 6.050781 -15.441406 Z M 12.1875 -2.113281 C 11.109375 -1.164062 8.886719 -0.0898438 7.015625 0.484375 C 7.324219 0.8125 7.832031 1.320312 8.050781 1.648438 C 9.964844 1.011719 12.207031 -0.109375 13.617188 -1.210938 Z M 15.792969 -1.144531 C 17.289062 -0.328125 19.183594 0.902344 20.128906 1.714844 L 21.402344 0.726562 C 20.390625 -0.109375 18.476562 -1.277344 17.003906 -2.023438 Z M 15.792969 -1.144531 "/></g></g></g><g fill="#6b5eff" fill-opacity="1"><g transform="translate(445.017066, 298.85119)"><g><path d="M 9.65625 -5.761719 C 9.4375 -6.90625 8.753906 -8.777344 8.027344 -10.230469 L 6.863281 -9.8125 C 7.128906 -9.195312 7.414062 -8.492188 7.675781 -7.808594 L 3.894531 -7.257812 C 5.675781 -9.28125 7.390625 -11.8125 8.84375 -14.34375 L 7.433594 -15.179688 C 6.929688 -14.1875 6.355469 -13.175781 5.761719 -12.230469 L 3.453125 -12.011719 C 4.664062 -13.683594 5.875 -15.773438 6.839844 -17.839844 L 5.300781 -18.476562 C 4.398438 -16.101562 2.882812 -13.59375 2.417969 -12.957031 C 1.957031 -12.296875 1.5625 -11.835938 1.1875 -11.746094 C 1.363281 -11.351562 1.628906 -10.558594 1.714844 -10.25 C 2.023438 -10.382812 2.484375 -10.492188 4.816406 -10.777344 C 4.027344 -9.589844 3.320312 -8.6875 2.96875 -8.292969 C 2.308594 -7.5 1.804688 -6.953125 1.34375 -6.863281 C 1.519531 -6.421875 1.761719 -5.652344 1.847656 -5.324219 C 2.289062 -5.566406 2.96875 -5.742188 8.050781 -6.535156 C 8.203125 -6.050781 8.316406 -5.632812 8.382812 -5.257812 Z M 2.242188 -4.355469 C 2.023438 -2.597656 1.695312 -0.636719 1.1875 0.703125 C 1.519531 0.8125 2.179688 1.035156 2.441406 1.1875 C 2.902344 -0.175781 3.34375 -2.242188 3.5625 -4.113281 Z M 4.597656 -4.203125 C 4.839844 -2.792969 5.058594 -0.96875 5.125 0.21875 L 6.378906 -0.0664062 C 6.3125 -1.277344 6.050781 -3.058594 5.785156 -4.445312 Z M 6.972656 -4.621094 C 7.390625 -3.476562 7.875 -1.980469 8.027344 -1.011719 L 9.261719 -1.429688 C 9.0625 -2.375 8.578125 -3.828125 8.140625 -4.972656 Z M 18.566406 -9.636719 C 18.058594 -7.632812 17.289062 -5.828125 16.320312 -4.289062 C 15.375 -5.851562 14.671875 -7.675781 14.167969 -9.636719 Z M 16.851562 -15.816406 C 16.628906 -14.410156 16.320312 -12.582031 16.035156 -11.109375 L 13.023438 -11.109375 C 13.109375 -12.582031 13.15625 -14.167969 13.199219 -15.816406 Z M 19.402344 -11.195312 L 19.117188 -11.109375 L 17.574219 -11.109375 C 17.972656 -13.066406 18.347656 -15.464844 18.585938 -17.269531 L 17.464844 -17.445312 L 17.203125 -17.355469 L 9.4375 -17.355469 L 9.4375 -15.816406 L 11.59375 -15.816406 C 11.527344 -8.6875 11.066406 -3.058594 8.183594 0.527344 C 8.578125 0.726562 9.347656 1.277344 9.613281 1.539062 C 11.59375 -1.230469 12.449219 -4.773438 12.867188 -9.171875 C 13.460938 -6.839844 14.277344 -4.730469 15.355469 -2.925781 C 14.1875 -1.453125 12.824219 -0.308594 11.371094 0.460938 C 11.746094 0.726562 12.1875 1.296875 12.40625 1.695312 C 13.835938 0.902344 15.15625 -0.199219 16.300781 -1.5625 C 17.335938 -0.242188 18.566406 0.835938 20.039062 1.582031 C 20.28125 1.144531 20.789062 0.527344 21.160156 0.21875 C 19.621094 -0.460938 18.347656 -1.519531 17.289062 -2.859375 C 18.71875 -4.972656 19.820312 -7.609375 20.414062 -10.824219 Z M 19.402344 -11.195312 "/></g></g></g><g fill="#6b5eff" fill-opacity="1"><g transform="translate(467.013148, 298.85119)"><g><path d="M 6.90625 -5.675781 C 6.226562 -5.34375 5.519531 -4.992188 4.863281 -4.683594 L 4.863281 -11.527344 L 6.863281 -11.527344 L 6.863281 -13.066406 L 4.863281 -13.066406 L 4.863281 -18.148438 L 3.320312 -18.148438 L 3.320312 -13.066406 L 1.035156 -13.066406 L 1.035156 -11.527344 L 3.320312 -11.527344 L 3.320312 -3.960938 C 2.398438 -3.542969 1.5625 -3.167969 0.859375 -2.882812 L 1.496094 -1.277344 C 3.191406 -2.113281 5.34375 -3.191406 7.347656 -4.222656 Z M 14.230469 -4.289062 C 11.394531 -3.542969 8.46875 -2.726562 6.488281 -2.289062 L 6.929688 -0.746094 C 9.019531 -1.34375 11.769531 -2.132812 14.386719 -2.902344 Z M 11.988281 -6.578125 L 9.152344 -6.578125 L 9.152344 -10.273438 L 11.988281 -10.273438 Z M 7.875 -11.59375 L 7.875 -5.257812 L 13.332031 -5.257812 L 13.332031 -11.59375 Z M 18.894531 -11.59375 C 18.367188 -9.523438 17.6875 -7.65625 16.785156 -5.9375 C 16.476562 -8.09375 16.257812 -10.734375 16.167969 -13.660156 L 20.789062 -13.660156 L 20.789062 -15.179688 L 19.621094 -15.179688 L 20.589844 -16.082031 C 20.039062 -16.761719 18.875 -17.707031 17.90625 -18.347656 L 16.960938 -17.53125 C 17.90625 -16.828125 19.027344 -15.839844 19.578125 -15.179688 L 16.125 -15.179688 C 16.101562 -16.210938 16.101562 -17.289062 16.101562 -18.390625 L 14.519531 -18.390625 C 14.519531 -17.3125 14.539062 -16.234375 14.585938 -15.179688 L 7.238281 -15.179688 L 7.238281 -13.660156 L 14.628906 -13.660156 C 14.761719 -9.941406 15.046875 -6.578125 15.550781 -3.9375 C 14.34375 -2.199219 12.867188 -0.703125 11.085938 0.417969 C 11.4375 0.683594 12.054688 1.210938 12.296875 1.496094 C 13.683594 0.507812 14.9375 -0.683594 16.015625 -2.089844 C 16.695312 0.265625 17.640625 1.671875 18.984375 1.671875 C 20.371094 1.671875 20.808594 0.746094 21.050781 -2.179688 C 20.699219 -2.355469 20.214844 -2.660156 19.886719 -3.035156 C 19.796875 -0.746094 19.601562 0.109375 19.183594 0.109375 C 18.367188 0.109375 17.707031 -1.320312 17.179688 -3.71875 C 18.542969 -5.894531 19.601562 -8.425781 20.390625 -11.308594 Z M 18.894531 -11.59375 "/></g></g></g><path stroke-linecap="butt" transform="matrix(0.75, 0, 0, 0.75, 424.072662, 255.301181)" fill="none" stroke-linejoin="miter" d="M 0.00207523 1.999468 L 73.851037 1.999468 " stroke="#6b5eff" stroke-width="4" stroke-opacity="1" stroke-miterlimit="4"/><g fill="#d459ff" fill-opacity="1"><g transform="translate(570.226665, 375.433804)"><g><path d="M 2.023438 5.039062 L 4.027344 5.039062 L 4.027344 0.988281 L 3.980469 -1.101562 C 5.058594 -0.21875 6.203125 0.285156 7.28125 0.285156 C 10.03125 0.285156 12.472656 -2.066406 12.472656 -6.160156 C 12.472656 -9.832031 10.800781 -12.253906 7.722656 -12.253906 C 6.335938 -12.253906 4.992188 -11.460938 3.914062 -10.582031 L 3.847656 -10.582031 L 3.671875 -11.945312 L 2.023438 -11.945312 Z M 6.953125 -1.386719 C 6.160156 -1.386719 5.101562 -1.714844 4.027344 -2.640625 L 4.027344 -8.910156 C 5.191406 -9.988281 6.226562 -10.558594 7.238281 -10.558594 C 9.503906 -10.558594 10.382812 -8.777344 10.382812 -6.136719 C 10.382812 -3.167969 8.929688 -1.386719 6.953125 -1.386719 Z M 6.953125 -1.386719 "/></g></g></g><g fill="#d459ff" fill-opacity="1"><g transform="translate(583.864234, 375.433804)"><g><path d="M 4.773438 0.285156 C 6.246094 0.285156 7.589844 -0.484375 8.734375 -1.429688 L 8.800781 -1.429688 L 8.976562 0 L 10.625 0 L 10.625 -7.347656 C 10.625 -10.292969 9.394531 -12.253906 6.488281 -12.253906 C 4.574219 -12.253906 2.882812 -11.394531 1.78125 -10.691406 L 2.574219 -9.304688 C 3.519531 -9.941406 4.773438 -10.582031 6.160156 -10.582031 C 8.117188 -10.582031 8.621094 -9.105469 8.621094 -7.566406 C 3.542969 -6.996094 1.277344 -5.699219 1.277344 -3.101562 C 1.277344 -0.945312 2.773438 0.285156 4.773438 0.285156 Z M 5.34375 -1.320312 C 4.15625 -1.320312 3.234375 -1.871094 3.234375 -3.234375 C 3.234375 -4.773438 4.597656 -5.761719 8.621094 -6.246094 L 8.621094 -2.902344 C 7.457031 -1.871094 6.511719 -1.320312 5.34375 -1.320312 Z M 5.34375 -1.320312 "/></g></g></g><g fill="#d459ff" fill-opacity="1"><g transform="translate(596.270018, 375.433804)"><g><path d="M 5.785156 0.285156 C 6.511719 0.285156 7.304688 0.0664062 7.984375 -0.152344 L 7.589844 -1.648438 C 7.191406 -1.496094 6.644531 -1.34375 6.226562 -1.34375 C 4.839844 -1.34375 4.378906 -2.179688 4.378906 -3.652344 L 4.378906 -10.316406 L 7.609375 -10.316406 L 7.609375 -11.945312 L 4.378906 -11.945312 L 4.378906 -15.308594 L 2.707031 -15.308594 L 2.464844 -11.945312 L 0.59375 -11.835938 L 0.59375 -10.316406 L 2.375 -10.316406 L 2.375 -3.695312 C 2.375 -1.320312 3.234375 0.285156 5.785156 0.285156 Z M 5.785156 0.285156 "/></g></g></g><g fill="#d459ff" fill-opacity="1"><g transform="translate(604.562544, 375.433804)"><g><path d="M 2.023438 0 L 4.027344 0 L 4.027344 -8.667969 C 5.234375 -9.875 6.070312 -10.492188 7.304688 -10.492188 C 8.886719 -10.492188 9.570312 -9.546875 9.570312 -7.304688 L 9.570312 0 L 11.570312 0 L 11.570312 -7.566406 C 11.570312 -10.625 10.425781 -12.253906 7.917969 -12.253906 C 6.292969 -12.253906 5.058594 -11.351562 3.960938 -10.25 L 4.027344 -12.714844 L 4.027344 -17.511719 L 2.023438 -17.511719 Z M 2.023438 0 "/></g></g></g><path stroke-linecap="butt" transform="matrix(0.75, 0, 0, 0.75, 508.087491, 331.883795)" fill="none" stroke-linejoin="miter" d="M -0.00207111 1.99869 L 229.628147 1.99869 " stroke="#d459ff" stroke-width="4" stroke-opacity="1" stroke-miterlimit="4"/><g fill="#309bff" fill-opacity="1"><g transform="translate(177.971462, 377.733784)"><g><path d="M 2.023438 0 L 4.027344 0 L 4.027344 -8.667969 C 5.234375 -9.875 6.070312 -10.492188 7.304688 -10.492188 C 8.886719 -10.492188 9.570312 -9.546875 9.570312 -7.304688 L 9.570312 0 L 11.570312 0 L 11.570312 -7.566406 C 11.570312 -10.625 10.425781 -12.253906 7.917969 -12.253906 C 6.292969 -12.253906 5.058594 -11.351562 3.960938 -10.25 L 4.027344 -12.714844 L 4.027344 -17.511719 L 2.023438 -17.511719 Z M 2.023438 0 "/></g></g></g><g fill="#309bff" fill-opacity="1"><g transform="translate(191.323078, 377.733784)"><g><path d="M 6.664062 0.285156 C 9.589844 0.285156 12.207031 -2 12.207031 -5.960938 C 12.207031 -9.941406 9.589844 -12.253906 6.664062 -12.253906 C 3.738281 -12.253906 1.121094 -9.941406 1.121094 -5.960938 C 1.121094 -2 3.738281 0.285156 6.664062 0.285156 Z M 6.664062 -1.386719 C 4.597656 -1.386719 3.210938 -3.210938 3.210938 -5.960938 C 3.210938 -8.710938 4.597656 -10.582031 6.664062 -10.582031 C 8.734375 -10.582031 10.140625 -8.710938 10.140625 -5.960938 C 10.140625 -3.210938 8.734375 -1.386719 6.664062 -1.386719 Z M 6.664062 -1.386719 "/></g></g></g><g fill="#309bff" fill-opacity="1"><g transform="translate(204.652698, 377.733784)"><g><path d="M 5.148438 0.285156 C 7.964844 0.285156 9.503906 -1.320312 9.503906 -3.253906 C 9.503906 -5.519531 7.589844 -6.226562 5.851562 -6.886719 C 4.507812 -7.390625 3.277344 -7.808594 3.277344 -8.953125 C 3.277344 -9.875 3.980469 -10.667969 5.5 -10.667969 C 6.554688 -10.667969 7.390625 -10.230469 8.203125 -9.613281 L 9.171875 -10.910156 C 8.25 -11.636719 6.953125 -12.253906 5.476562 -12.253906 C 2.882812 -12.253906 1.34375 -10.757812 1.34375 -8.863281 C 1.34375 -6.839844 3.167969 -6.027344 4.839844 -5.410156 C 6.160156 -4.90625 7.566406 -4.378906 7.566406 -3.144531 C 7.566406 -2.113281 6.796875 -1.277344 5.214844 -1.277344 C 3.785156 -1.277344 2.707031 -1.847656 1.671875 -2.683594 L 0.683594 -1.363281 C 1.824219 -0.417969 3.453125 0.285156 5.148438 0.285156 Z M 5.148438 0.285156 "/></g></g></g><g fill="#309bff" fill-opacity="1"><g transform="translate(214.946864, 377.733784)"><g><path d="M 5.785156 0.285156 C 6.511719 0.285156 7.304688 0.0664062 7.984375 -0.152344 L 7.589844 -1.648438 C 7.191406 -1.496094 6.644531 -1.34375 6.226562 -1.34375 C 4.839844 -1.34375 4.378906 -2.179688 4.378906 -3.652344 L 4.378906 -10.316406 L 7.609375 -10.316406 L 7.609375 -11.945312 L 4.378906 -11.945312 L 4.378906 -15.308594 L 2.707031 -15.308594 L 2.464844 -11.945312 L 0.59375 -11.835938 L 0.59375 -10.316406 L 2.375 -10.316406 L 2.375 -3.695312 C 2.375 -1.320312 3.234375 0.285156 5.785156 0.285156 Z M 5.785156 0.285156 "/></g></g></g><g fill="#309bff" fill-opacity="1"><g transform="translate(223.23939, 377.733784)"><g><path d="M 2.023438 0 L 4.027344 0 L 4.027344 -8.667969 C 5.234375 -9.875 6.070312 -10.492188 7.304688 -10.492188 C 8.886719 -10.492188 9.570312 -9.546875 9.570312 -7.304688 L 9.570312 0 L 11.570312 0 L 11.570312 -7.566406 C 11.570312 -10.625 10.425781 -12.253906 7.917969 -12.253906 C 6.292969 -12.253906 5.058594 -11.351562 3.914062 -10.230469 L 3.847656 -10.230469 L 3.671875 -11.945312 L 2.023438 -11.945312 Z M 2.023438 0 "/></g></g></g><g fill="#309bff" fill-opacity="1"><g transform="translate(236.678998, 377.733784)"><g><path d="M 4.773438 0.285156 C 6.246094 0.285156 7.589844 -0.484375 8.734375 -1.429688 L 8.800781 -1.429688 L 8.976562 0 L 10.625 0 L 10.625 -7.347656 C 10.625 -10.292969 9.394531 -12.253906 6.488281 -12.253906 C 4.574219 -12.253906 2.882812 -11.394531 1.78125 -10.691406 L 2.574219 -9.304688 C 3.519531 -9.941406 4.773438 -10.582031 6.160156 -10.582031 C 8.117188 -10.582031 8.621094 -9.105469 8.621094 -7.566406 C 3.542969 -6.996094 1.277344 -5.699219 1.277344 -3.101562 C 1.277344 -0.945312 2.773438 0.285156 4.773438 0.285156 Z M 5.34375 -1.320312 C 4.15625 -1.320312 3.234375 -1.871094 3.234375 -3.234375 C 3.234375 -4.773438 4.597656 -5.761719 8.621094 -6.246094 L 8.621094 -2.902344 C 7.457031 -1.871094 6.511719 -1.320312 5.34375 -1.320312 Z M 5.34375 -1.320312 "/></g></g></g><g fill="#309bff" fill-opacity="1"><g transform="translate(249.084782, 377.733784)"><g><path d="M 2.023438 0 L 4.027344 0 L 4.027344 -8.667969 C 5.125 -9.898438 6.136719 -10.492188 7.039062 -10.492188 C 8.558594 -10.492188 9.261719 -9.546875 9.261719 -7.304688 L 9.261719 0 L 11.261719 0 L 11.261719 -8.667969 C 12.382812 -9.898438 13.351562 -10.492188 14.277344 -10.492188 C 15.792969 -10.492188 16.5 -9.546875 16.5 -7.304688 L 16.5 0 L 18.5 0 L 18.5 -7.566406 C 18.5 -10.625 17.335938 -12.253906 14.871094 -12.253906 C 13.417969 -12.253906 12.164062 -11.308594 10.933594 -9.964844 C 10.449219 -11.371094 9.457031 -12.253906 7.632812 -12.253906 C 6.203125 -12.253906 4.949219 -11.351562 3.914062 -10.207031 L 3.847656 -10.207031 L 3.671875 -11.945312 L 2.023438 -11.945312 Z M 2.023438 0 "/></g></g></g><g fill="#309bff" fill-opacity="1"><g transform="translate(269.453148, 377.733784)"><g><path d="M 6.839844 0.285156 C 8.46875 0.285156 9.746094 -0.265625 10.800781 -0.945312 L 10.074219 -2.265625 C 9.195312 -1.671875 8.25 -1.320312 7.082031 -1.320312 C 4.816406 -1.320312 3.253906 -2.949219 3.125 -5.5 L 11.175781 -5.5 C 11.21875 -5.785156 11.261719 -6.203125 11.261719 -6.644531 C 11.261719 -10.054688 9.546875 -12.253906 6.511719 -12.253906 C 3.738281 -12.253906 1.121094 -9.832031 1.121094 -5.960938 C 1.121094 -2.023438 3.671875 0.285156 6.839844 0.285156 Z M 3.101562 -6.953125 C 3.34375 -9.28125 4.839844 -10.648438 6.535156 -10.648438 C 8.402344 -10.648438 9.503906 -9.347656 9.503906 -6.953125 Z M 3.101562 -6.953125 "/></g></g></g><path stroke-linecap="butt" transform="matrix(0.75, 0, 0, 0.75, 65.956243, 333.072311)" fill="none" stroke-linejoin="miter" d="M 0.0010512 2.002544 L 567.756283 2.002544 " stroke="#309bff" stroke-width="4" stroke-opacity="1" stroke-miterlimit="4"/></svg>