<svg xmlns="http://www.w3.org/2000/svg" xmlns:xlink="http://www.w3.org/1999/xlink" width="500" zoomAndPan="magnify" viewBox="0 0 375 374.999991" height="500" preserveAspectRatio="xMidYMid meet" version="1.0"><defs><clipPath id="3990dfdc8e"><path d="M 37.5 37.5 L 337.5 37.5 L 337.5 337.5 L 37.5 337.5 Z M 37.5 37.5 " clip-rule="nonzero"/></clipPath><clipPath id="db683263c5"><path d="M 187.398438 42.683594 C 177.078125 42.683594 167.117188 47.925781 158.15625 57.351562 L 216.640625 57.351562 C 207.683594 47.925781 197.71875 42.683594 187.398438 42.683594 Z M 75.941406 147.773438 C 68.953125 147.773438 63.265625 153.460938 63.265625 160.449219 L 63.265625 214.347656 C 63.265625 221.335938 68.953125 227.023438 75.941406 227.023438 L 298.859375 227.023438 C 305.847656 227.023438 311.53125 221.339844 311.53125 214.351562 L 311.53125 160.449219 C 311.53125 153.460938 305.84375 147.777344 298.855469 147.777344 L 120.460938 147.777344 C 120.429688 147.777344 120.394531 147.777344 120.363281 147.777344 L 75.941406 147.777344 Z M 298.859375 232.285156 L 256.667969 232.285156 C 255.15625 242.34375 253.121094 252.050781 250.621094 261.21875 L 311.796875 261.21875 C 320.125 247.195312 326.121094 231.742188 329.355469 215.464844 L 316.757812 215.464844 C 316.179688 224.835938 308.375 232.285156 298.859375 232.285156 Z M 251.34375 232.285156 L 123.457031 232.285156 C 125.019531 242.511719 127.101562 252.199219 129.621094 261.21875 L 245.179688 261.21875 C 247.699219 252.199219 249.777344 242.511719 251.34375 232.285156 Z M 118.128906 232.285156 L 75.941406 232.285156 C 66.4375 232.285156 58.640625 224.859375 58.042969 215.507812 L 45.433594 215.511719 C 48.675781 231.90625 54.695312 247.308594 62.980469 261.21875 L 124.179688 261.21875 C 121.679688 252.050781 119.640625 242.34375 118.128906 232.285156 Z M 58.003906 210.246094 L 58.003906 164.535156 L 44.488281 164.535156 C 43.300781 171.984375 42.683594 179.621094 42.683594 187.398438 C 42.683594 195.171875 43.304688 202.804688 44.488281 210.25 Z M 58.046875 159.273438 C 58.652344 149.929688 66.441406 142.511719 75.941406 142.511719 L 118.128906 142.511719 C 119.640625 132.453125 121.679688 122.746094 124.179688 113.578125 L 62.972656 113.578125 C 54.691406 127.484375 48.671875 142.886719 45.429688 159.273438 Z M 123.457031 142.511719 L 251.34375 142.511719 C 249.777344 132.285156 247.695312 122.601562 245.175781 113.578125 L 129.621094 113.578125 C 127.101562 122.601562 125.023438 132.285156 123.457031 142.511719 Z M 256.667969 142.511719 L 298.859375 142.511719 C 308.359375 142.511719 316.152344 149.933594 316.753906 159.285156 L 329.371094 159.285156 C 326.128906 142.890625 320.109375 127.484375 311.828125 113.578125 L 250.621094 113.578125 C 253.121094 122.746094 255.15625 132.453125 256.667969 142.511719 Z M 316.792969 164.546875 L 316.792969 210.203125 L 330.296875 210.199219 C 331.492188 202.734375 332.113281 195.117188 332.113281 187.398438 C 332.113281 179.625 331.496094 171.992188 330.308594 164.546875 Z M 238.171875 197.0625 L 239.179688 203.964844 L 240.644531 197.746094 L 250.996094 161.246094 L 256.820312 161.246094 L 266.90625 197.746094 L 268.347656 204.058594 L 269.464844 197.023438 L 277.574219 161.246094 L 284.503906 161.246094 L 271.828125 213.550781 L 265.535156 213.550781 L 254.773438 175.433594 L 253.9375 171.445312 L 253.117188 175.433594 L 241.945312 213.550781 L 235.65625 213.550781 L 223.015625 161.246094 L 229.90625 161.246094 Z M 172.910156 197.0625 L 173.914062 203.964844 L 175.382812 197.746094 L 185.734375 161.246094 L 191.558594 161.246094 L 201.644531 197.746094 L 203.082031 204.058594 L 204.191406 197.023438 L 212.3125 161.246094 L 219.238281 161.246094 L 206.5625 213.550781 L 200.273438 213.550781 L 189.511719 175.433594 L 188.675781 171.445312 L 187.851562 175.433594 L 176.683594 213.550781 L 170.394531 213.550781 L 157.753906 161.246094 L 164.644531 161.246094 Z M 107.644531 197.0625 L 108.644531 203.964844 L 110.121094 197.746094 L 120.464844 161.246094 L 126.289062 161.246094 L 136.382812 197.746094 L 137.8125 204.058594 L 138.929688 197.023438 L 147.050781 161.246094 L 153.976562 161.246094 L 141.300781 213.550781 L 135.011719 213.550781 L 124.246094 175.433594 L 123.410156 171.445312 L 122.589844 175.433594 L 111.421875 213.550781 L 105.128906 213.550781 L 92.492188 161.246094 L 99.382812 161.246094 Z M 250.957031 317.449219 L 223.785156 317.449219 C 219.257812 322.859375 214.480469 327.207031 209.511719 330.4375 C 218.667969 329.035156 227.652344 326.757812 236.390625 323.613281 C 241.394531 321.8125 246.253906 319.75 250.957031 317.449219 Z M 216.644531 317.449219 L 158.152344 317.449219 C 167.109375 326.875 177.078125 332.117188 187.398438 332.117188 C 197.71875 332.117188 207.6875 326.875 216.644531 317.449219 Z M 151.015625 317.449219 L 123.957031 317.449219 C 136.78125 323.730469 150.664062 328.175781 165.265625 330.425781 C 160.304688 327.191406 155.535156 322.851562 151.015625 317.449219 Z M 114.183594 312.1875 L 146.933594 312.1875 C 145.609375 310.351562 144.3125 308.417969 143.042969 306.390625 C 136.148438 295.40625 130.257812 281.785156 125.683594 266.480469 L 66.261719 266.480469 C 78.488281 285.152344 94.914062 300.835938 114.183594 312.1875 Z M 153.597656 312.1875 L 221.199219 312.1875 C 230.140625 300.898438 237.867188 285.269531 243.636719 266.480469 L 131.164062 266.480469 C 136.933594 285.269531 144.660156 300.898438 153.597656 312.1875 Z M 227.867188 312.1875 L 260.734375 312.183594 C 280.140625 300.746094 296.425781 285.003906 308.519531 266.480469 L 249.117188 266.480469 C 244.539062 281.785156 238.648438 295.40625 231.757812 306.390625 C 230.484375 308.417969 229.1875 310.351562 227.867188 312.1875 Z M 66.257812 108.316406 L 125.683594 108.316406 C 130.257812 93.011719 136.148438 79.394531 143.042969 68.40625 C 144.3125 66.378906 145.613281 64.445312 146.933594 62.609375 L 114.179688 62.609375 C 94.910156 73.960938 78.484375 89.648438 66.257812 108.316406 Z M 131.164062 108.316406 L 243.636719 108.316406 C 237.863281 89.527344 230.136719 73.898438 221.195312 62.609375 L 153.601562 62.609375 C 144.660156 73.898438 136.933594 89.527344 131.164062 108.316406 Z M 249.117188 108.316406 L 308.542969 108.316406 C 296.316406 89.648438 279.890625 73.960938 260.621094 62.609375 L 227.863281 62.609375 C 229.1875 64.445312 230.484375 66.378906 231.757812 68.40625 C 238.652344 79.394531 244.542969 93.011719 249.117188 108.316406 Z M 151.015625 57.347656 C 155.535156 51.945312 160.304688 47.605469 165.261719 44.375 C 150.667969 46.625 136.789062 51.070312 123.96875 57.351562 Z M 250.832031 57.347656 C 238.007812 51.070312 224.132812 46.625 209.539062 44.375 C 214.496094 47.605469 219.265625 51.945312 223.785156 57.347656 Z M 187.398438 337.375 C 147.335938 337.375 109.671875 321.777344 81.347656 293.449219 C 53.023438 265.121094 37.421875 227.460938 37.421875 187.398438 C 37.421875 147.339844 53.023438 109.675781 81.347656 81.347656 C 109.671875 53.019531 147.335938 37.421875 187.398438 37.421875 C 227.464844 37.417969 265.125 53.019531 293.449219 81.347656 C 321.777344 109.675781 337.378906 147.339844 337.378906 187.398438 C 337.378906 215.125 329.890625 241.804688 315.640625 265.210938 L 315.636719 265.214844 C 313.703125 268.390625 311.644531 271.511719 309.464844 274.5625 C 291.59375 299.542969 266.941406 318.214844 238.171875 328.566406 C 221.914062 334.410156 204.828125 337.375 187.398438 337.375 Z M 187.398438 337.375 " clip-rule="evenodd"/></clipPath></defs><g clip-path="url(#3990dfdc8e)"><g clip-path="url(#db683263c5)"><path fill="#065985" d="M 37.5 37.5 L 37.5 337.375 L 337.378906 337.375 L 337.378906 37.5 Z M 37.5 37.5 " fill-opacity="1" fill-rule="nonzero"/></g></g></svg>