<svg xmlns="http://www.w3.org/2000/svg" xmlns:xlink="http://www.w3.org/1999/xlink" width="500" zoomAndPan="magnify" viewBox="0 0 375 374.999991" height="500" preserveAspectRatio="xMidYMid meet" version="1.0"><path fill="#065985" d="M 274.769531 190.472656 C 274.769531 191.425781 274.722656 192.375 274.628906 193.324219 C 274.535156 194.273438 274.394531 195.214844 274.207031 196.152344 C 274.023438 197.085938 273.792969 198.011719 273.515625 198.921875 C 273.238281 199.835938 272.917969 200.730469 272.550781 201.613281 C 272.1875 202.492188 271.78125 203.355469 271.332031 204.195312 C 270.882812 205.035156 270.390625 205.851562 269.863281 206.644531 C 269.332031 207.4375 268.765625 208.203125 268.160156 208.941406 C 267.554688 209.679688 266.914062 210.382812 266.242188 211.058594 C 265.566406 211.730469 264.863281 212.371094 264.125 212.976562 C 263.386719 213.582031 262.621094 214.148438 261.828125 214.679688 C 261.035156 215.207031 260.21875 215.699219 259.378906 216.148438 C 258.539062 216.597656 257.675781 217.003906 256.796875 217.367188 C 255.914062 217.734375 255.019531 218.054688 254.105469 218.332031 C 253.195312 218.609375 252.269531 218.839844 251.335938 219.023438 C 250.398438 219.210938 249.457031 219.351562 248.507812 219.445312 C 247.558594 219.539062 246.609375 219.585938 245.65625 219.585938 C 244.703125 219.585938 243.75 219.539062 242.800781 219.445312 C 241.851562 219.351562 240.910156 219.210938 239.976562 219.023438 C 239.039062 218.839844 238.117188 218.609375 237.203125 218.332031 C 236.292969 218.054688 235.394531 217.734375 234.515625 217.367188 C 233.632812 217.003906 232.773438 216.597656 231.933594 216.148438 C 231.089844 215.699219 230.273438 215.207031 229.480469 214.679688 C 228.6875 214.148438 227.921875 213.582031 227.1875 212.976562 C 226.449219 212.371094 225.742188 211.730469 225.070312 211.058594 C 224.394531 210.382812 223.757812 209.679688 223.152344 208.941406 C 222.546875 208.203125 221.980469 207.4375 221.449219 206.644531 C 220.917969 205.851562 220.429688 205.035156 219.980469 204.195312 C 219.53125 203.355469 219.125 202.492188 218.757812 201.613281 C 218.394531 200.730469 218.074219 199.835938 217.796875 198.921875 C 217.519531 198.011719 217.289062 197.085938 217.101562 196.152344 C 216.917969 195.214844 216.777344 194.273438 216.683594 193.324219 C 216.589844 192.375 216.542969 191.425781 216.542969 190.472656 C 216.542969 189.519531 216.589844 188.566406 216.683594 187.617188 C 216.777344 186.667969 216.917969 185.726562 217.101562 184.792969 C 217.289062 183.855469 217.519531 182.933594 217.796875 182.019531 C 218.074219 181.109375 218.394531 180.210938 218.757812 179.332031 C 219.125 178.449219 219.53125 177.589844 219.980469 176.75 C 220.429688 175.90625 220.917969 175.089844 221.449219 174.296875 C 221.980469 173.503906 222.546875 172.738281 223.152344 172.003906 C 223.757812 171.265625 224.394531 170.558594 225.070312 169.886719 C 225.742188 169.210938 226.449219 168.574219 227.1875 167.96875 C 227.921875 167.363281 228.6875 166.796875 229.480469 166.265625 C 230.273438 165.734375 231.089844 165.246094 231.933594 164.796875 C 232.773438 164.347656 233.632812 163.941406 234.515625 163.574219 C 235.394531 163.210938 236.292969 162.890625 237.203125 162.613281 C 238.117188 162.335938 239.039062 162.105469 239.976562 161.917969 C 240.910156 161.734375 241.851562 161.59375 242.800781 161.5 C 243.75 161.40625 244.703125 161.359375 245.65625 161.359375 C 246.609375 161.359375 247.558594 161.40625 248.507812 161.5 C 249.457031 161.59375 250.398438 161.734375 251.335938 161.917969 C 252.269531 162.105469 253.195312 162.335938 254.105469 162.613281 C 255.019531 162.890625 255.914062 163.210938 256.796875 163.574219 C 257.675781 163.941406 258.539062 164.347656 259.378906 164.796875 C 260.21875 165.246094 261.035156 165.734375 261.828125 166.265625 C 262.621094 166.796875 263.386719 167.363281 264.125 167.96875 C 264.863281 168.574219 265.566406 169.210938 266.242188 169.886719 C 266.914062 170.558594 267.554688 171.265625 268.160156 172.003906 C 268.765625 172.738281 269.332031 173.503906 269.863281 174.296875 C 270.390625 175.089844 270.882812 175.90625 271.332031 176.75 C 271.78125 177.589844 272.1875 178.449219 272.550781 179.332031 C 272.917969 180.210938 273.238281 181.109375 273.515625 182.019531 C 273.792969 182.933594 274.023438 183.855469 274.207031 184.792969 C 274.394531 185.726562 274.535156 186.667969 274.628906 187.617188 C 274.722656 188.566406 274.769531 189.519531 274.769531 190.472656 Z M 274.769531 190.472656 " fill-opacity="1" fill-rule="nonzero"/><path fill="#065985" d="M 216.542969 132.246094 C 216.542969 133.199219 216.496094 134.152344 216.402344 135.101562 C 216.308594 136.050781 216.167969 136.992188 215.984375 137.925781 C 215.796875 138.859375 215.566406 139.785156 215.289062 140.699219 C 215.011719 141.609375 214.691406 142.507812 214.328125 143.386719 C 213.960938 144.269531 213.554688 145.128906 213.105469 145.96875 C 212.65625 146.8125 212.167969 147.628906 211.636719 148.421875 C 211.105469 149.214844 210.539062 149.976562 209.933594 150.714844 C 209.328125 151.453125 208.691406 152.15625 208.015625 152.832031 C 207.34375 153.507812 206.636719 154.144531 205.898438 154.75 C 205.164062 155.355469 204.398438 155.921875 203.605469 156.453125 C 202.8125 156.984375 201.996094 157.472656 201.152344 157.921875 C 200.3125 158.371094 199.453125 158.777344 198.570312 159.144531 C 197.691406 159.507812 196.792969 159.828125 195.882812 160.105469 C 194.96875 160.382812 194.046875 160.613281 193.109375 160.800781 C 192.175781 160.984375 191.234375 161.125 190.285156 161.21875 C 189.335938 161.3125 188.382812 161.359375 187.429688 161.359375 C 186.476562 161.359375 185.527344 161.3125 184.578125 161.21875 C 183.628906 161.125 182.6875 160.984375 181.75 160.800781 C 180.816406 160.613281 179.890625 160.382812 178.980469 160.105469 C 178.066406 159.828125 177.171875 159.507812 176.289062 159.144531 C 175.410156 158.777344 174.546875 158.371094 173.707031 157.921875 C 172.867188 157.472656 172.050781 156.984375 171.257812 156.453125 C 170.464844 155.921875 169.699219 155.355469 168.960938 154.75 C 168.222656 154.144531 167.519531 153.507812 166.84375 152.832031 C 166.171875 152.15625 165.53125 151.453125 164.925781 150.714844 C 164.320312 149.976562 163.753906 149.214844 163.222656 148.421875 C 162.695312 147.628906 162.203125 146.8125 161.753906 145.96875 C 161.304688 145.128906 160.898438 144.269531 160.535156 143.386719 C 160.167969 142.507812 159.847656 141.609375 159.570312 140.699219 C 159.292969 139.785156 159.0625 138.859375 158.878906 137.925781 C 158.691406 136.992188 158.550781 136.050781 158.457031 135.101562 C 158.363281 134.152344 158.316406 133.199219 158.316406 132.246094 C 158.316406 131.292969 158.363281 130.34375 158.457031 129.394531 C 158.550781 128.445312 158.691406 127.503906 158.878906 126.566406 C 159.0625 125.632812 159.292969 124.707031 159.570312 123.796875 C 159.847656 122.882812 160.167969 121.988281 160.535156 121.105469 C 160.898438 120.226562 161.304688 119.363281 161.753906 118.523438 C 162.203125 117.683594 162.695312 116.863281 163.222656 116.074219 C 163.753906 115.28125 164.320312 114.515625 164.925781 113.777344 C 165.53125 113.039062 166.171875 112.335938 166.84375 111.660156 C 167.519531 110.988281 168.222656 110.347656 168.960938 109.742188 C 169.699219 109.136719 170.464844 108.570312 171.257812 108.039062 C 172.050781 107.511719 172.867188 107.019531 173.707031 106.570312 C 174.546875 106.121094 175.410156 105.714844 176.289062 105.351562 C 177.171875 104.984375 178.066406 104.664062 178.980469 104.386719 C 179.890625 104.109375 180.816406 103.878906 181.75 103.691406 C 182.6875 103.507812 183.628906 103.367188 184.578125 103.273438 C 185.527344 103.179688 186.476562 103.132812 187.429688 103.132812 C 188.382812 103.132812 189.335938 103.179688 190.285156 103.273438 C 191.234375 103.367188 192.175781 103.507812 193.109375 103.691406 C 194.046875 103.878906 194.96875 104.109375 195.882812 104.386719 C 196.792969 104.664062 197.691406 104.984375 198.570312 105.351562 C 199.453125 105.714844 200.3125 106.121094 201.152344 106.570312 C 201.996094 107.019531 202.8125 107.511719 203.605469 108.039062 C 204.398438 108.570312 205.164062 109.136719 205.898438 109.742188 C 206.636719 110.347656 207.34375 110.988281 208.015625 111.660156 C 208.691406 112.335938 209.328125 113.039062 209.933594 113.777344 C 210.539062 114.515625 211.105469 115.28125 211.636719 116.074219 C 212.167969 116.863281 212.65625 117.683594 213.105469 118.523438 C 213.554688 119.363281 213.960938 120.226562 214.328125 121.105469 C 214.691406 121.988281 215.011719 122.882812 215.289062 123.796875 C 215.566406 124.707031 215.796875 125.632812 215.984375 126.566406 C 216.167969 127.503906 216.308594 128.445312 216.402344 129.394531 C 216.496094 130.34375 216.542969 131.292969 216.542969 132.246094 Z M 216.542969 132.246094 " fill-opacity="1" fill-rule="nonzero"/><path fill="#065985" d="M 216.542969 248.695312 C 216.542969 249.652344 216.496094 250.601562 216.402344 251.550781 C 216.308594 252.5 216.167969 253.441406 215.984375 254.375 C 215.796875 255.3125 215.566406 256.234375 215.289062 257.148438 C 215.011719 258.0625 214.691406 258.957031 214.328125 259.839844 C 213.960938 260.71875 213.554688 261.578125 213.105469 262.421875 C 212.65625 263.261719 212.167969 264.078125 211.636719 264.871094 C 211.105469 265.664062 210.539062 266.429688 209.933594 267.167969 C 209.328125 267.902344 208.691406 268.609375 208.015625 269.28125 C 207.34375 269.957031 206.636719 270.597656 205.898438 271.203125 C 205.164062 271.804688 204.398438 272.375 203.605469 272.902344 C 202.8125 273.433594 201.996094 273.921875 201.152344 274.371094 C 200.3125 274.820312 199.453125 275.230469 198.570312 275.59375 C 197.691406 275.957031 196.792969 276.28125 195.882812 276.554688 C 194.96875 276.832031 194.046875 277.0625 193.109375 277.25 C 192.175781 277.4375 191.234375 277.578125 190.285156 277.667969 C 189.335938 277.761719 188.382812 277.808594 187.429688 277.808594 C 186.476562 277.808594 185.527344 277.761719 184.578125 277.667969 C 183.628906 277.578125 182.6875 277.4375 181.75 277.25 C 180.816406 277.0625 179.890625 276.832031 178.980469 276.554688 C 178.066406 276.28125 177.171875 275.957031 176.289062 275.59375 C 175.410156 275.230469 174.546875 274.820312 173.707031 274.371094 C 172.867188 273.921875 172.050781 273.433594 171.257812 272.902344 C 170.464844 272.375 169.699219 271.804688 168.960938 271.203125 C 168.222656 270.597656 167.519531 269.957031 166.84375 269.28125 C 166.171875 268.609375 165.53125 267.902344 164.925781 267.167969 C 164.320312 266.429688 163.753906 265.664062 163.222656 264.871094 C 162.695312 264.078125 162.203125 263.261719 161.753906 262.421875 C 161.304688 261.578125 160.898438 260.71875 160.535156 259.839844 C 160.167969 258.957031 159.847656 258.0625 159.570312 257.148438 C 159.292969 256.234375 159.0625 255.3125 158.878906 254.375 C 158.691406 253.441406 158.550781 252.5 158.457031 251.550781 C 158.363281 250.601562 158.316406 249.652344 158.316406 248.695312 C 158.316406 247.742188 158.363281 246.792969 158.457031 245.84375 C 158.550781 244.894531 158.691406 243.953125 158.878906 243.019531 C 159.0625 242.082031 159.292969 241.160156 159.570312 240.246094 C 159.847656 239.332031 160.167969 238.4375 160.535156 237.554688 C 160.898438 236.675781 161.304688 235.8125 161.753906 234.972656 C 162.203125 234.132812 162.695312 233.316406 163.222656 232.523438 C 163.753906 231.730469 164.320312 230.964844 164.925781 230.226562 C 165.53125 229.492188 166.171875 228.785156 166.84375 228.113281 C 167.519531 227.4375 168.222656 226.796875 168.960938 226.191406 C 169.699219 225.589844 170.464844 225.019531 171.257812 224.492188 C 172.050781 223.960938 172.867188 223.472656 173.707031 223.023438 C 174.546875 222.574219 175.410156 222.164062 176.289062 221.800781 C 177.171875 221.4375 178.066406 221.113281 178.980469 220.839844 C 179.890625 220.5625 180.816406 220.328125 181.75 220.144531 C 182.6875 219.957031 183.628906 219.816406 184.578125 219.726562 C 185.527344 219.632812 186.476562 219.585938 187.429688 219.585938 C 188.382812 219.585938 189.335938 219.632812 190.285156 219.726562 C 191.234375 219.816406 192.175781 219.957031 193.109375 220.144531 C 194.046875 220.328125 194.96875 220.5625 195.882812 220.839844 C 196.792969 221.113281 197.691406 221.4375 198.570312 221.800781 C 199.453125 222.164062 200.3125 222.574219 201.152344 223.023438 C 201.996094 223.472656 202.8125 223.960938 203.605469 224.492188 C 204.398438 225.019531 205.164062 225.589844 205.898438 226.191406 C 206.636719 226.796875 207.34375 227.4375 208.015625 228.113281 C 208.691406 228.785156 209.328125 229.492188 209.933594 230.226562 C 210.539062 230.964844 211.105469 231.730469 211.636719 232.523438 C 212.167969 233.316406 212.65625 234.132812 213.105469 234.972656 C 213.554688 235.8125 213.960938 236.675781 214.328125 237.554688 C 214.691406 238.4375 215.011719 239.332031 215.289062 240.246094 C 215.566406 241.160156 215.796875 242.082031 215.984375 243.015625 C 216.167969 243.953125 216.308594 244.894531 216.402344 245.84375 C 216.496094 246.792969 216.542969 247.742188 216.542969 248.695312 Z M 216.542969 248.695312 " fill-opacity="1" fill-rule="nonzero"/><path fill="#065985" d="M 187.429688 248.695312 C 186.472656 248.695312 185.527344 248.605469 184.589844 248.417969 C 183.652344 248.230469 182.742188 247.953125 181.859375 247.589844 C 180.976562 247.222656 180.136719 246.773438 179.34375 246.242188 C 178.546875 245.714844 177.8125 245.109375 177.136719 244.433594 C 176.460938 243.757812 175.859375 243.023438 175.328125 242.226562 C 174.796875 241.433594 174.347656 240.59375 173.980469 239.710938 C 173.617188 238.828125 173.339844 237.917969 173.152344 236.980469 C 172.96875 236.042969 172.875 235.097656 172.875 234.140625 L 172.875 146.804688 C 172.875 145.847656 172.96875 144.902344 173.152344 143.964844 C 173.339844 143.027344 173.617188 142.117188 173.980469 141.230469 C 174.347656 140.347656 174.796875 139.511719 175.328125 138.714844 C 175.859375 137.921875 176.460938 137.1875 177.136719 136.511719 C 177.8125 135.835938 178.546875 135.230469 179.34375 134.699219 C 180.136719 134.167969 180.976562 133.71875 181.859375 133.355469 C 182.742188 132.988281 183.652344 132.710938 184.589844 132.527344 C 185.527344 132.339844 186.472656 132.246094 187.429688 132.246094 C 188.386719 132.246094 189.332031 132.339844 190.269531 132.527344 C 191.207031 132.710938 192.117188 132.988281 193 133.355469 C 193.882812 133.71875 194.722656 134.167969 195.515625 134.699219 C 196.3125 135.230469 197.046875 135.835938 197.722656 136.511719 C 198.398438 137.1875 199.003906 137.921875 199.535156 138.714844 C 200.0625 139.511719 200.511719 140.347656 200.878906 141.230469 C 201.246094 142.117188 201.519531 143.027344 201.707031 143.964844 C 201.894531 144.902344 201.988281 145.847656 201.988281 146.804688 L 201.988281 234.140625 C 201.988281 235.097656 201.894531 236.042969 201.707031 236.980469 C 201.519531 237.917969 201.246094 238.828125 200.878906 239.710938 C 200.511719 240.59375 200.0625 241.433594 199.535156 242.226562 C 199.003906 243.023438 198.398438 243.757812 197.722656 244.433594 C 197.046875 245.109375 196.3125 245.714844 195.515625 246.242188 C 194.722656 246.773438 193.882812 247.222656 193 247.589844 C 192.117188 247.953125 191.207031 248.230469 190.269531 248.417969 C 189.332031 248.605469 188.386719 248.695312 187.429688 248.695312 Z M 187.429688 248.695312 " fill-opacity="1" fill-rule="nonzero"/><path fill="#065985" d="M 231.097656 190.472656 C 229.167969 190.476562 227.3125 190.109375 225.527344 189.367188 C 223.742188 188.628906 222.171875 187.574219 220.808594 186.207031 L 191.695312 157.09375 C 191.039062 156.414062 190.453125 155.675781 189.941406 154.882812 C 189.425781 154.089844 188.996094 153.253906 188.644531 152.375 C 188.296875 151.5 188.03125 150.59375 187.859375 149.667969 C 187.683594 148.738281 187.601562 147.800781 187.609375 146.855469 C 187.617188 145.910156 187.71875 144.972656 187.90625 144.046875 C 188.097656 143.121094 188.375 142.222656 188.742188 141.351562 C 189.105469 140.480469 189.554688 139.652344 190.078125 138.867188 C 190.605469 138.082031 191.203125 137.355469 191.871094 136.6875 C 192.539062 136.019531 193.265625 135.421875 194.050781 134.894531 C 194.835938 134.367188 195.664062 133.921875 196.535156 133.558594 C 197.40625 133.191406 198.308594 132.914062 199.234375 132.722656 C 200.160156 132.535156 201.09375 132.433594 202.039062 132.425781 C 202.984375 132.417969 203.921875 132.5 204.851562 132.675781 C 205.777344 132.847656 206.683594 133.113281 207.558594 133.460938 C 208.4375 133.8125 209.273438 134.242188 210.066406 134.757812 C 210.863281 135.269531 211.597656 135.855469 212.277344 136.511719 L 241.390625 165.625 C 241.898438 166.128906 242.363281 166.671875 242.789062 167.246094 C 243.214844 167.820312 243.597656 168.421875 243.933594 169.054688 C 244.273438 169.6875 244.5625 170.339844 244.800781 171.011719 C 245.042969 171.6875 245.234375 172.375 245.371094 173.078125 C 245.511719 173.777344 245.601562 174.488281 245.636719 175.203125 C 245.671875 175.917969 245.652344 176.628906 245.582031 177.34375 C 245.511719 178.054688 245.390625 178.757812 245.214844 179.453125 C 245.042969 180.148438 244.820312 180.824219 244.542969 181.484375 C 244.269531 182.148438 243.949219 182.785156 243.582031 183.398438 C 243.214844 184.011719 242.804688 184.597656 242.347656 185.148438 C 241.894531 185.703125 241.402344 186.21875 240.871094 186.699219 C 240.34375 187.179688 239.78125 187.621094 239.183594 188.019531 C 238.589844 188.414062 237.96875 188.765625 237.320312 189.074219 C 236.675781 189.378906 236.007812 189.636719 235.324219 189.84375 C 234.640625 190.050781 233.941406 190.207031 233.234375 190.3125 C 232.527344 190.417969 231.816406 190.472656 231.097656 190.472656 Z M 231.097656 190.472656 " fill-opacity="1" fill-rule="nonzero"/><path fill="#065985" d="M 172.875 132.246094 C 170.941406 132.25 169.085938 131.882812 167.300781 131.144531 C 165.519531 130.402344 163.945312 129.351562 162.582031 127.980469 L 134.925781 100.324219 C 134.269531 99.644531 133.683594 98.90625 133.171875 98.113281 C 132.65625 97.320312 132.226562 96.484375 131.875 95.605469 C 131.527344 94.730469 131.261719 93.824219 131.089844 92.898438 C 130.914062 91.96875 130.832031 91.03125 130.839844 90.085938 C 130.847656 89.140625 130.949219 88.203125 131.136719 87.277344 C 131.328125 86.351562 131.605469 85.453125 131.972656 84.582031 C 132.335938 83.710938 132.785156 82.882812 133.308594 82.097656 C 133.835938 81.3125 134.433594 80.585938 135.101562 79.917969 C 135.769531 79.25 136.496094 78.652344 137.28125 78.125 C 138.066406 77.597656 138.894531 77.152344 139.765625 76.789062 C 140.636719 76.421875 141.539062 76.144531 142.464844 75.953125 C 143.390625 75.761719 144.324219 75.664062 145.269531 75.65625 C 146.214844 75.648438 147.152344 75.730469 148.082031 75.90625 C 149.007812 76.078125 149.914062 76.34375 150.789062 76.691406 C 151.667969 77.042969 152.503906 77.472656 153.296875 77.988281 C 154.089844 78.5 154.828125 79.085938 155.507812 79.742188 L 183.164062 107.398438 C 183.671875 107.90625 184.136719 108.445312 184.5625 109.019531 C 184.988281 109.59375 185.371094 110.199219 185.710938 110.828125 C 186.046875 111.460938 186.335938 112.113281 186.578125 112.789062 C 186.816406 113.460938 187.007812 114.148438 187.148438 114.851562 C 187.289062 115.554688 187.375 116.261719 187.410156 116.976562 C 187.445312 117.691406 187.425781 118.40625 187.355469 119.117188 C 187.285156 119.828125 187.164062 120.53125 186.992188 121.226562 C 186.816406 121.921875 186.59375 122.597656 186.320312 123.261719 C 186.046875 123.921875 185.722656 124.558594 185.355469 125.171875 C 184.988281 125.785156 184.578125 126.371094 184.125 126.921875 C 183.667969 127.476562 183.175781 127.992188 182.648438 128.476562 C 182.117188 128.957031 181.554688 129.394531 180.960938 129.792969 C 180.363281 130.191406 179.742188 130.542969 179.097656 130.847656 C 178.449219 131.152344 177.785156 131.410156 177.097656 131.617188 C 176.414062 131.828125 175.71875 131.984375 175.007812 132.089844 C 174.300781 132.195312 173.589844 132.246094 172.875 132.246094 Z M 172.875 132.246094 " fill-opacity="1" fill-rule="nonzero"/><path fill="#065985" d="M 187.429688 335.832031 C 184.464844 335.863281 181.523438 335.605469 178.609375 335.0625 C 175.695312 334.519531 172.859375 333.699219 170.105469 332.601562 C 167.351562 331.503906 164.726562 330.152344 162.238281 328.542969 C 159.746094 326.933594 157.4375 325.097656 155.304688 323.035156 L 54.867188 222.597656 C 53.851562 221.523438 52.890625 220.40625 51.980469 219.242188 C 51.070312 218.078125 50.21875 216.875 49.425781 215.628906 C 48.628906 214.382812 47.894531 213.105469 47.222656 211.789062 C 46.546875 210.476562 45.9375 209.132812 45.390625 207.761719 C 44.847656 206.386719 44.367188 204.992188 43.953125 203.574219 C 43.539062 202.15625 43.191406 200.722656 42.914062 199.273438 C 42.636719 197.824219 42.425781 196.363281 42.289062 194.890625 C 42.148438 193.421875 42.078125 191.949219 42.078125 190.472656 C 42.078125 188.996094 42.148438 187.519531 42.289062 186.050781 C 42.425781 184.582031 42.636719 183.121094 42.914062 181.671875 C 43.191406 180.21875 43.539062 178.785156 43.953125 177.367188 C 44.367188 175.949219 44.847656 174.554688 45.390625 173.183594 C 45.9375 171.8125 46.546875 170.46875 47.222656 169.152344 C 47.894531 167.839844 48.628906 166.558594 49.425781 165.316406 C 50.21875 164.070312 51.070312 162.867188 51.980469 161.703125 C 52.890625 160.539062 53.851562 159.417969 54.867188 158.347656 L 155.304688 57.90625 C 156.378906 56.890625 157.496094 55.929688 158.660156 55.019531 C 159.824219 54.109375 161.027344 53.257812 162.273438 52.464844 C 163.519531 51.667969 164.796875 50.933594 166.113281 50.261719 C 167.425781 49.585938 168.769531 48.976562 170.140625 48.429688 C 171.515625 47.882812 172.910156 47.402344 174.328125 46.988281 C 175.746094 46.574219 177.179688 46.226562 178.628906 45.949219 C 180.082031 45.671875 181.542969 45.460938 183.011719 45.324219 C 184.484375 45.183594 185.957031 45.113281 187.433594 45.113281 C 188.910156 45.113281 190.386719 45.183594 191.855469 45.324219 C 193.324219 45.460938 194.785156 45.671875 196.238281 45.949219 C 197.6875 46.226562 199.121094 46.574219 200.539062 46.988281 C 201.957031 47.402344 203.351562 47.882812 204.726562 48.429688 C 206.097656 48.976562 207.441406 49.585938 208.753906 50.261719 C 210.070312 50.933594 211.351562 51.667969 212.59375 52.464844 C 213.839844 53.257812 215.042969 54.109375 216.207031 55.019531 C 217.371094 55.929688 218.492188 56.890625 219.5625 57.90625 L 320.003906 158.347656 C 321.015625 159.417969 321.980469 160.539062 322.886719 161.703125 C 323.796875 162.867188 324.648438 164.070312 325.445312 165.316406 C 326.238281 166.558594 326.972656 167.839844 327.644531 169.152344 C 328.320312 170.46875 328.929688 171.8125 329.476562 173.183594 C 330.023438 174.554688 330.5 175.949219 330.914062 177.367188 C 331.328125 178.785156 331.675781 180.21875 331.953125 181.671875 C 332.230469 183.121094 332.441406 184.582031 332.582031 186.050781 C 332.71875 187.519531 332.789062 188.996094 332.789062 190.472656 C 332.789062 191.949219 332.71875 193.421875 332.582031 194.890625 C 332.441406 196.363281 332.230469 197.824219 331.953125 199.273438 C 331.675781 200.722656 331.328125 202.15625 330.914062 203.574219 C 330.5 204.992188 330.023438 206.386719 329.476562 207.761719 C 328.929688 209.132812 328.320312 210.476562 327.644531 211.789062 C 326.972656 213.105469 326.238281 214.382812 325.445312 215.628906 C 324.648438 216.875 323.796875 218.078125 322.886719 219.242188 C 321.980469 220.40625 321.015625 221.523438 320.003906 222.597656 L 219.5625 323.035156 C 217.429688 325.097656 215.121094 326.933594 212.628906 328.542969 C 210.136719 330.152344 207.515625 331.507812 204.757812 332.605469 C 202.003906 333.703125 199.167969 334.523438 196.253906 335.066406 C 193.335938 335.609375 190.394531 335.863281 187.429688 335.832031 Z M 187.429688 74.226562 C 185.304688 74.15625 183.242188 74.488281 181.246094 75.226562 C 179.25 75.964844 177.464844 77.054688 175.894531 78.488281 L 75.457031 178.929688 C 74.773438 179.726562 74.167969 180.578125 73.636719 181.484375 C 73.105469 182.390625 72.660156 183.335938 72.296875 184.320312 C 71.933594 185.304688 71.660156 186.3125 71.472656 187.347656 C 71.289062 188.378906 71.195312 189.421875 71.195312 190.472656 C 71.195312 191.523438 71.289062 192.5625 71.472656 193.597656 C 71.660156 194.628906 71.933594 195.640625 72.296875 196.625 C 72.660156 197.609375 73.105469 198.554688 73.636719 199.460938 C 74.167969 200.363281 74.773438 201.21875 75.457031 202.015625 L 175.894531 302.453125 C 176.707031 303.105469 177.566406 303.683594 178.476562 304.191406 C 179.386719 304.699219 180.332031 305.125 181.316406 305.46875 C 182.296875 305.816406 183.300781 306.078125 184.328125 306.253906 C 185.355469 306.425781 186.390625 306.515625 187.429688 306.515625 C 188.472656 306.515625 189.503906 306.425781 190.53125 306.253906 C 191.558594 306.078125 192.5625 305.816406 193.546875 305.46875 C 194.527344 305.125 195.472656 304.699219 196.382812 304.191406 C 197.292969 303.683594 198.15625 303.105469 198.964844 302.453125 L 299.40625 202.015625 C 300.085938 201.21875 300.691406 200.363281 301.222656 199.460938 C 301.753906 198.554688 302.203125 197.609375 302.566406 196.625 C 302.929688 195.640625 303.203125 194.628906 303.386719 193.597656 C 303.570312 192.5625 303.664062 191.523438 303.664062 190.472656 C 303.664062 189.421875 303.570312 188.378906 303.386719 187.347656 C 303.203125 186.3125 302.929688 185.304688 302.566406 184.320312 C 302.203125 183.335938 301.753906 182.390625 301.222656 181.484375 C 300.691406 180.578125 300.085938 179.726562 299.40625 178.929688 L 198.964844 78.488281 C 197.394531 77.054688 195.609375 75.96875 193.613281 75.230469 C 191.617188 74.492188 189.558594 74.15625 187.429688 74.226562 Z M 187.429688 74.226562 " fill-opacity="1" fill-rule="nonzero"/></svg>